# VPXTOOL table OBJ file
# VPXTOOL OBJ file
# numVerts: 99 numFaces: 360
o dank5
v -0 0.11746899783611298 -0.06230999901890755
v 0.016860999166965485 0.13601399958133698 -0.029203999787569046
v -0.016860999166965485 0.13601399958133698 -0.029203999787569046
v 0 0.08971299976110458 0.08141200244426727
v -0 0.11746899783611298 0.06230999901890755
v 0.031154999509453773 0.11746899783611298 0.05396199971437454
v -0.04405999928712845 0.05697299912571907 0.07631400227546692
v -0.07631400227546692 0.05697299912571907 0.04405999928712845
v -0.07050500065088272 0.08971299976110458 0.040706001222133636
v -0.05396199971437454 0.11746899783611298 -0.031154999509453773
v -0.03372199833393097 0.13601399958133698 0
v 0.05396199971437454 0.11746899783611298 0.031154999509453773
v 0.03372199833393097 0.13601399958133698 0
v 0.06230999901890755 0.11746899783611298 0
v 0.08141200244426727 0.08971299976110458 0
v 0.07050500065088272 0.08971299976110458 0.040706001222133636
v -0 0.05697400122880936 -0.0881199985742569
v -0 0.08971299976110458 -0.08141200244426727
v -0.040706001222133636 0.08971299976110458 -0.07050500065088272
v -0.08227500319480896 -0.11402600258588791 -0.04750100150704384
v -0.07631400227546692 0.05697400122880936 -0.04405999928712845
v -0.0881199985742569 0.05697299912571907 0
v -0.08141200244426727 0.08971299976110458 0
v -0.06230999901890755 0.11746899783611298 0
v 0.040706001222133636 0.08971299976110458 0.07050500065088272
v 0.05396199971437454 0.11746899783611298 0.031154999509453773
v -0.04405999928712845 0.05697400122880936 -0.07631400227546692
v 0.07631400227546692 0.05697400122880936 -0.04405999928712845
v 0.07050500065088272 0.08971299976110458 -0.040706001222133636
v 0.040706001222133636 0.08971299976110458 -0.07050500065088272
v -0.04750100150704384 -0.11402600258588791 0.08227500319480896
v -0 0.05697299912571907 0.0881199985742569
v 0.04405999928712845 0.05697299912571907 0.07631400227546692
v 0.04750100150704384 -0.11402600258588791 0.08227500319480896
v -0.08227500319480896 -0.11402600258588791 0.04750100150704384
v -0.09500300139188766 -0.11402600258588791 -0
v -0.0881199985742569 0.05697299912571907 0
v -0.04405999928712845 -0.14252600073814392 0.07631400227546692
v 0.0881199985742569 0.05697299912571907 0
v 0.08141200244426727 0.08971299976110458 0
v 0.08227500319480896 -0.11402600258588791 -0.04750100150704384
v 0.04750100150704384 -0.11402600258588791 -0.08227500319480896
v 0.04405999928712845 -0.14252600073814392 -0.07631400227546692
v -0.016860999166965485 0.13601399958133698 0.029203999787569046
v -0.031154999509453773 0.11746899783611298 0.05396199971437454
v -0.05396199971437454 0.11746899783611298 0.031154999509453773
v -0.07050500065088272 0.08971299976110458 -0.040706001222133636
v -0.08141200244426727 0.08971299976110458 0
v -0.040706001222133636 0.08971299976110458 0.07050500065088272
v -0.05396199971437454 0.11746899783611298 0.031154999509453773
v -0 0.05697400122880936 -0.0881199985742569
v 0 -0.11402600258588791 -0.09500300139188766
v -0.04405999928712845 -0.14252600073814392 -0.07631400227546692
v -0.04750100150704384 -0.11402600258588791 -0.08227500319480896
v -0.0881199985742569 -0.14252600073814392 -0
v -0 0.05697299912571907 0.0881199985742569
v 0.04405999928712845 -0.14252600073814392 0.07631400227546692
v 0 -0.14252600073814392 0.08811900019645691
v -0 0.08971299976110458 -0.08141200244426727
v -0 0.11746899783611298 0.06230999901890755
v 0.07050500065088272 0.08971299976110458 0.040706001222133636
v 0.07631400227546692 0.05697299912571907 0.04405999928712845
v -0.06230999901890755 0.11746899783611298 0
v 0.08141200244426727 0.08971299976110458 0
v 0.0881199985742569 0.05697299912571907 0
v -0.031154999509453773 0.11746899783611298 -0.05396199971437454
v 0.016860999166965485 0.13601399958133698 0.029203999787569046
v 0.031154999509453773 0.11746899783611298 -0.05396199971437454
v 0.05396199971437454 0.11746899783611298 -0.031154999509453773
v 0 -0.14252600073814392 -0.0881199985742569
v -0 0.14252600073814392 0
v -0.031154999509453773 0.11746899783611298 -0.05396199971437454
v -0.05396199971437454 0.11746899783611298 -0.031154999509453773
v 0.08227500319480896 -0.11402600258588791 0.04750100150704384
v 0.04405999928712845 0.05697400122880936 -0.07631400227546692
v 0.05396199971437454 0.11746899783611298 -0.031154999509453773
v 0.09500300139188766 -0.11402600258588791 -0
v 0.0881199985742569 -0.14252600073814392 -0
v 0.031154999509453773 0.11746899783611298 0.05396199971437454
v 0.031154999509453773 0.11746899783611298 -0.05396199971437454
v -0 0.11746899783611298 -0.06230999901890755
v 0 0.08971299976110458 0.08141200244426727
v -0.031154999509453773 0.11746899783611298 0.05396199971437454
v 0.06230999901890755 0.11746899783611298 0
v -0.06230999901890755 0.11746899783611298 0
v 0.09500300139188766 -0.11402600258588791 -0
v 0.0881199985742569 -0.14252600073814392 -0
v -0.0881199985742569 -0.14252600073814392 -0
v 0 -0.11402600258588791 0.09500300139188766
v 0 -0.14252600073814392 0.08811900019645691
v 0 -0.14252600073814392 -0.0881199985742569
v 0 -0.11402600258588791 0.09500300139188766
v -0.07631400227546692 -0.14252600073814392 0.04405999928712845
v 0.07631400227546692 -0.14252600073814392 -0.04405999928712845
v -0.07631400227546692 -0.14252600073814392 -0.04405999928712845
v 0.07631400227546692 -0.14252600073814392 0.04405999928712845
v -0 0.11746899783611298 -0.06230999901890755
v -0 0.11746899783611298 0.06230999901890755
v 0 -0.11402600258588791 -0.09500300139188766
vt 0 0.349731981754303
vt 0.08378499746322632 0.34012001752853394
vt 0.06309600174427032 0.40191298723220825
vt 0.976157009601593 0.4421589970588684
vt 0.9426460266113281 0.49261802434921265
vt 0.8733440041542053 0.4955909848213196
vt 0.5565840005874634 0.6214519739151001
vt 0.4434159994125366 0.6214519739151001
vt 0.44772300124168396 0.5575810074806213
vt 0.04120900109410286 0.46427297592163086
vt 0.12241300195455551 0.447488009929657
vt 0.2560569941997528 0.2978280186653137
vt 0.16379299759864807 0.3239020109176636
vt 0.1868620067834854 0.26687097549438477
vt 0.20685799419879913 0.2249159812927246
vt 0.2972649931907654 0.265362024307251
vt 0.012075000442564487 0.6153010129928589
vt 0.02384299971163273 0.5519000291824341
vt 0.11438900232315063 0.5575810074806213
vt 0.22767199575901031 0.9477139711380005
vt 0.22325100004673004 0.6214500069618225
vt 0.321258008480072 0.6153030395507813
vt 0.3571760058403015 0.5519000291824341
vt 0.3906880021095276 0.4955909848213196
vt 0.8856099843978882 0.44604402780532837
vt 0.7933220267295837 0.4955909848213196
vt 0.11008299887180328 0.6214500069618225
vt 0.7767490148544312 0.6214500069618225
vt 0.7810559868812561 0.5575810074806213
vt 0.8856109976768494 0.5575810074806213
vt 0.5610049962997437 0.9477139711380005
vt 0.9879249930381775 0.380577027797699
vt 0.8899170160293579 0.38478201627731323
vt 0.8943380117416382 0.059800028800964355
vt 0.43899500370025635 0.9477139711380005
vt 0.33333298563957214 0.9410849809646606
vt 0.34540799260139465 0.6153030395507813
vt 0.5565840005874634 1
vt 0.678741991519928 0.6153030395507813
vt 0.6905099749565125 0.5519000291824341
vt 0.7723280191421509 0.9477139711380005
vt 0.8943380117416382 0.9477139711380005
vt 0.8899170160293579 1
vt 0.20242099463939667 0.4312700033187866
vt 0.2582379877567291 0.4652619957923889
vt 0.18984100222587585 0.4955909848213196
vt 0.2189439982175827 0.5575810074806213
vt 0.30948999524116516 0.5519000291824341
vt 0.5522770285606384 0.5575810074806213
vt 0.4599890112876892 0.4999390244483948
vt 0.9879249930381775 0.6153010129928589
vt 1 0.9410849809646606
vt 0.1100820004940033 1
vt 0.10566200315952301 0.9477139711380005
vt 0.321258008480072 0.9938510060310364
vt 0.654591977596283 0.6153030395507813
vt 0.8899170160293579 0.004204988479614258
vt 0.9879230260848999 0
vt 0.976157009601593 0.5519000291824341
vt 0.2972649931907654 0.4123690128326416
vt 0.7810559868812561 0.44604402780532837
vt 0.7767490148544312 0.38478201627731323
vt 0.11040300130844116 0.49522900581359863
vt 0.6905099749565125 0.4421589970588684
vt 0.678741991519928 0.380577027797699
vt 0.0007980000227689743 0.4110170006752014
vt 0.22311000525951385 0.36947697401046753
vt 0.039028000086545944 0.2968379855155945
vt 0.10742399841547012 0.2665089964866638
vt 0.9879249930381775 0.9938510060310364
vt 0.1411609947681427 0.3873260021209717
vt 0.12665599584579468 0.4999390244483948
vt 0.20667800307273865 0.4999390244483948
vt 0.7723280191421509 0.059800028800964355
vt 0.8899180293083191 0.6214500069618225
vt 0.7933220267295837 0.4999390244483948
vt 0.6666669845581055 0.05526602268218994
vt 0.678741991519928 0
vt 0.29646700620651245 0.351082980632782
vt 0.8733440041542053 0.4999390244483948
vt 0.9426460266113281 0.4955909848213196
vt 0.6428239941596985 0.5519000291824341
vt 0.5400109887123108 0.4999390244483948
vt 0.7240210175514221 0.4955909848213196
vt 0.27597901225090027 0.4955909848213196
vt 0.6666669845581055 0.9410849809646606
vt 0.678741991519928 0.9938510060310364
vt 0.34540799260139465 0.9938510060310364
vt 0.6666669845581055 0.9410849809646606
vt 0.6545900106430054 0.9938510060310364
vt 0.012075000442564487 0.9938510060310364
vt 1 0.05526602268218994
vt 0.4434159994125366 1
vt 0.7767490148544312 1
vt 0.22325100004673004 1
vt 0.7767490148544312 0.004204988479614258
vt 0.057353999465703964 0.4955909848213196
vt 0.6093119978904724 0.4955909848213196
vt 0 0.9410849809646606
vn 0 0.7071999907493591 -0.7070000171661377
vn 0.19280000030994415 0.9225999712944031 -0.33399999141693115
vn -0.19280000030994415 0.9225999712944031 -0.33399999141693115
vn 0 0.38029998540878296 0.9248999953269958
vn 0 0.7071999907493591 0.7070000171661377
vn 0.35659998655319214 0.7009000182151794 0.6176999807357788
vn -0.49639999866485596 0.1193000003695488 0.8597999811172485
vn -0.8597999811172485 0.1193000003695488 0.49639999866485596
vn -0.8008999824523926 0.38029998540878296 0.46239998936653137
vn -0.6122999787330627 0.7071999907493591 -0.35350000858306885
vn -0.385699987411499 0.9225999712944031 0
vn 0.6122999787330627 0.7071999907493591 0.35350000858306885
vn 0.385699987411499 0.9225999712944031 0
vn 0.7131999731063843 0.7009000182151794 0
vn 0.9248999953269958 0.38029998540878296 0
vn 0.8008999824523926 0.38029998540878296 0.46239998936653137
vn 0 0.1193000003695488 -0.9927999973297119
vn 0 0.38029998540878296 -0.9248999953269958
vn -0.46239998936653137 0.38029998540878296 -0.8008999824523926
vn -0.8619999885559082 -0.09600000083446503 -0.4977000057697296
vn -0.8597999811172485 0.1193000003695488 -0.49639999866485596
vn -0.992900013923645 0.1193000003695488 0
vn -0.9248999953269958 0.38029998540878296 0
vn -0.7131999731063843 0.7009000182151794 0
vn 0.46239998936653137 0.38029998540878296 0.8008999824523926
vn 0.6122999787330627 0.7071999907493591 0.35350000858306885
vn -0.49639999866485596 0.1193000003695488 -0.8597999811172485
vn 0.8597999811172485 0.1193000003695488 -0.49639999866485596
vn 0.8008999824523926 0.38029998540878296 -0.46239998936653137
vn 0.46239998936653137 0.38029998540878296 -0.8008999824523926
vn -0.4977000057697296 -0.09600000083446503 0.8619999885559082
vn 0 0.1193000003695488 0.992900013923645
vn 0.49639999866485596 0.1193000003695488 0.8597999811172485
vn 0.4977000057697296 -0.09600000083446503 0.8619999885559082
vn -0.8619999885559082 -0.09600000083446503 0.4977000057697296
vn -0.9954000115394592 -0.09600000083446503 0
vn -0.992900013923645 0.1193000003695488 0
vn -0.4860000014305115 -0.23469999432563782 0.8417999744415283
vn 0.992900013923645 0.1193000003695488 0
vn 0.9248999953269958 0.38029998540878296 0
vn 0.8619999885559082 -0.09600000083446503 -0.4977000057697296
vn 0.4977000057697296 -0.09600000083446503 -0.8619999885559082
vn 0.4860000014305115 -0.23469999432563782 -0.8417999744415283
vn -0.19280000030994415 0.9225999712944031 0.33399999141693115
vn -0.35659998655319214 0.7009000182151794 0.6176999807357788
vn -0.6122999787330627 0.7071999907493591 0.35350000858306885
vn -0.8008999824523926 0.38029998540878296 -0.46239998936653137
vn -0.9248999953269958 0.38029998540878296 0
vn -0.46239998936653137 0.38029998540878296 0.8008999824523926
vn -0.6122999787330627 0.7071999907493591 0.35350000858306885
vn 0 0.1193000003695488 -0.9927999973297119
vn 0 -0.09600000083446503 -0.9954000115394592
vn -0.4860000014305115 -0.23469999432563782 -0.8417999744415283
vn -0.4977000057697296 -0.09600000083446503 -0.8619999885559082
vn -0.972000002861023 -0.23469999432563782 0
vn 0 0.1193000003695488 0.992900013923645
vn 0.4860000014305115 -0.23469999432563782 0.8417999744415283
vn 0 -0.23479999601840973 0.972000002861023
vn 0 0.38029998540878296 -0.9248999953269958
vn 0 0.7071999907493591 0.7070000171661377
vn 0.8008999824523926 0.38029998540878296 0.46239998936653137
vn 0.8597999811172485 0.1193000003695488 0.49639999866485596
vn -0.7131999731063843 0.7009000182151794 0
vn 0.9248999953269958 0.38029998540878296 0
vn 0.992900013923645 0.1193000003695488 0
vn -0.35659998655319214 0.7009000182151794 -0.6176999807357788
vn 0.19280000030994415 0.9225999712944031 0.33399999141693115
vn 0.35659998655319214 0.7009000182151794 -0.6176999807357788
vn 0.6122999787330627 0.7071999907493591 -0.35350000858306885
vn 0 -0.23469999432563782 -0.972000002861023
vn 0 1 0
vn -0.35659998655319214 0.7009000182151794 -0.6176999807357788
vn -0.6122999787330627 0.7071999907493591 -0.35350000858306885
vn 0.8619999885559082 -0.09600000083446503 0.4977000057697296
vn 0.49639999866485596 0.1193000003695488 -0.8597999811172485
vn 0.6122999787330627 0.7071999907493591 -0.35350000858306885
vn 0.9954000115394592 -0.09600000083446503 0
vn 0.972000002861023 -0.23469999432563782 0
vn 0.35659998655319214 0.7009000182151794 0.6176999807357788
vn 0.35659998655319214 0.7009000182151794 -0.6176999807357788
vn 0 0.7071999907493591 -0.7070000171661377
vn 0 0.38029998540878296 0.9248999953269958
vn -0.35659998655319214 0.7009000182151794 0.6176999807357788
vn 0.7131999731063843 0.7009000182151794 0
vn -0.7131999731063843 0.7009000182151794 0
vn 0.9954000115394592 -0.09600000083446503 0
vn 0.972000002861023 -0.23469999432563782 0
vn -0.972000002861023 -0.23469999432563782 0
vn 0 -0.09610000252723694 0.9954000115394592
vn 0 -0.23479999601840973 0.972000002861023
vn 0 -0.23469999432563782 -0.972000002861023
vn 0 -0.09610000252723694 0.9954000115394592
vn -0.8417999744415283 -0.23469999432563782 0.4860000014305115
vn 0.8417999744415283 -0.23469999432563782 -0.4860000014305115
vn -0.8417999744415283 -0.23469999432563782 -0.4860000014305115
vn 0.8417999744415283 -0.23469999432563782 0.4860000014305115
vn 0 0.7071999907493591 -0.7070000171661377
vn 0 0.7071999907493591 0.7070000171661377
vn 0 -0.09600000083446503 -0.9954000115394592
f 16/16/16 15/15/15 14/14/14
f 12/12/12 16/16/16 14/14/14
f 14/14/14 13/13/13 12/12/12
f 14/14/14 69/69/69 13/13/13
f 12/12/12 13/13/13 67/67/67
f 79/79/79 12/12/12 67/67/67
f 60/60/60 79/79/79 67/67/67
f 69/69/69 2/2/2 13/13/13
f 68/68/68 2/2/2 69/69/69
f 1/1/1 2/2/2 68/68/68
f 13/13/13 71/71/71 67/67/67
f 71/71/71 13/13/13 2/2/2
f 44/44/44 60/60/60 67/67/67
f 67/67/67 71/71/71 44/44/44
f 60/60/60 44/44/44 45/45/45
f 46/46/46 45/45/45 44/44/44
f 3/3/3 2/2/2 1/1/1
f 3/3/3 71/71/71 2/2/2
f 66/66/66 3/3/3 1/1/1
f 10/10/10 3/3/3 66/66/66
f 11/11/11 44/44/44 71/71/71
f 3/3/3 11/11/11 71/71/71
f 11/11/11 46/46/46 44/44/44
f 11/11/11 3/3/3 10/10/10
f 46/46/46 11/11/11 63/63/63
f 63/63/63 11/11/11 10/10/10
f 6/6/6 5/5/5 4/4/4
f 25/25/25 6/6/6 4/4/4
f 26/26/26 6/6/6 25/25/25
f 25/25/25 4/4/4 32/32/32
f 61/61/61 26/26/26 25/25/25
f 33/33/33 25/25/25 32/32/32
f 25/25/25 33/33/33 61/61/61
f 34/34/34 33/33/33 32/32/32
f 92/92/92 34/34/34 32/32/32
f 92/92/92 58/58/58 34/34/34
f 58/58/58 57/57/57 34/34/34
f 33/33/33 62/62/62 61/61/61
f 33/33/33 34/34/34 62/62/62
f 65/65/65 64/64/64 61/61/61
f 62/62/62 65/65/65 61/61/61
f 74/74/74 34/34/34 57/57/57
f 34/34/34 74/74/74 62/62/62
f 65/65/65 62/62/62 74/74/74
f 96/96/96 74/74/74 57/57/57
f 77/77/77 65/65/65 74/74/74
f 96/96/96 78/78/78 74/74/74
f 78/78/78 77/77/77 74/74/74
f 9/9/9 8/8/8 7/7/7
f 24/24/24 23/23/23 9/9/9
f 50/50/50 24/24/24 9/9/9
f 23/23/23 37/37/37 9/9/9
f 37/37/37 8/8/8 9/9/9
f 50/50/50 9/9/9 49/49/49
f 49/49/49 9/9/9 7/7/7
f 83/83/83 50/50/50 49/49/49
f 98/98/98 83/83/83 82/82/82
f 83/83/83 49/49/49 82/82/82
f 82/82/82 49/49/49 56/56/56
f 49/49/49 7/7/7 56/56/56
f 7/7/7 31/31/31 56/56/56
f 31/31/31 7/7/7 8/8/8
f 31/31/31 89/89/89 56/56/56
f 90/90/90 89/89/89 31/31/31
f 38/38/38 90/90/90 31/31/31
f 8/8/8 37/37/37 35/35/35
f 35/35/35 31/31/31 8/8/8
f 38/38/38 31/31/31 35/35/35
f 93/93/93 38/38/38 35/35/35
f 93/93/93 35/35/35 88/88/88
f 37/37/37 36/36/36 35/35/35
f 35/35/35 36/36/36 88/88/88
f 55/55/55 36/36/36 20/20/20
f 95/95/95 55/55/55 20/20/20
f 36/36/36 22/22/22 20/20/20
f 95/95/95 20/20/20 53/53/53
f 22/22/22 21/21/21 20/20/20
f 22/22/22 48/48/48 21/21/21
f 20/20/20 54/54/54 53/53/53
f 54/54/54 20/20/20 21/21/21
f 91/91/91 53/53/53 54/54/54
f 99/99/99 91/91/91 54/54/54
f 99/99/99 54/54/54 17/17/17
f 48/48/48 47/47/47 21/21/21
f 47/47/47 48/48/48 85/85/85
f 73/73/73 47/47/47 85/85/85
f 27/27/27 54/54/54 21/21/21
f 54/54/54 27/27/27 17/17/17
f 47/47/47 19/19/19 21/21/21
f 19/19/19 27/27/27 21/21/21
f 47/47/47 73/73/73 19/19/19
f 27/27/27 19/19/19 17/17/17
f 73/73/73 72/72/72 19/19/19
f 19/19/19 18/18/18 17/17/17
f 18/18/18 19/19/19 72/72/72
f 97/97/97 18/18/18 72/72/72
f 30/30/30 29/29/29 28/28/28
f 29/29/29 40/40/40 28/28/28
f 84/84/84 40/40/40 29/29/29
f 76/76/76 84/84/84 29/29/29
f 76/76/76 29/29/29 30/30/30
f 40/40/40 39/39/39 28/28/28
f 80/80/80 76/76/76 30/30/30
f 81/81/81 80/80/80 30/30/30
f 59/59/59 81/81/81 30/30/30
f 51/51/51 59/59/59 30/30/30
f 75/75/75 30/30/30 28/28/28
f 75/75/75 51/51/51 30/30/30
f 28/28/28 39/39/39 41/41/41
f 75/75/75 28/28/28 41/41/41
f 39/39/39 86/86/86 41/41/41
f 41/41/41 86/86/86 87/87/87
f 94/94/94 41/41/41 87/87/87
f 94/94/94 43/43/43 41/41/41
f 75/75/75 42/42/42 51/51/51
f 42/42/42 75/75/75 41/41/41
f 43/43/43 42/42/42 41/41/41
f 42/42/42 52/52/52 51/51/51
f 43/43/43 70/70/70 42/42/42
f 70/70/70 52/52/52 42/42/42
