# VPXTOOL table OBJ file
# VPXTOOL OBJ file
# numVerts: 61 numFaces: 324
o Primitive011
v 0 -0.06475000083446503 -0.13925300538539886
v 0 -0.08787500113248825 -0.07450299710035324
v 0.04393700137734413 -0.07610200345516205 -0.07450299710035324
v 0.03237500041723251 -0.056074999272823334 -0.13925300538539886
v 0.07610200345516205 -0.04393700137734413 -0.07450299710035324
v 0.056074999272823334 -0.03237500041723251 -0.13925300538539886
v 0.08787500113248825 0 -0.07450299710035324
v 0.06475000083446503 0 -0.13925300538539886
v 0.07610200345516205 0.04393700137734413 -0.07450299710035324
v 0.056074999272823334 0.03237500041723251 -0.13925300538539886
v 0.04393700137734413 0.07610200345516205 -0.07450299710035324
v 0.03237500041723251 0.056074999272823334 -0.13925300538539886
v 0 0.08787500113248825 -0.07450299710035324
v 0 0.06475000083446503 -0.13925300538539886
v -0.04393700137734413 0.07610200345516205 -0.07450299710035324
v -0.03237500041723251 0.056074999272823334 -0.13925300538539886
v -0.07610200345516205 0.04393700137734413 -0.07450299710035324
v -0.056074999272823334 0.03237500041723251 -0.13925300538539886
v -0.08787500113248825 0 -0.07450299710035324
v -0.06475000083446503 0 -0.13925300538539886
v -0.07610200345516205 -0.04393700137734413 -0.07450299710035324
v -0.056074999272823334 -0.03237500041723251 -0.13925300538539886
v -0.04393700137734413 -0.07610200345516205 -0.07450299710035324
v -0.03237500041723251 -0.056074999272823334 -0.13925300538539886
v 0 -0.08787500113248825 -0.06525299698114395
v 0 -0.06475000083446503 -0.0005029999883845448
v 0.03237500041723251 -0.056074999272823334 -0.0005029999883845448
v 0.04393700137734413 -0.07610200345516205 -0.06525299698114395
v 0.056074999272823334 -0.03237500041723251 -0.0005029999883845448
v 0.07610200345516205 -0.04393700137734413 -0.06525299698114395
v 0.06475000083446503 -0 -0.0005029999883845448
v 0.08787500113248825 -0 -0.06525299698114395
v 0.056074999272823334 0.03237500041723251 -0.0005029999883845448
v 0.07610200345516205 0.04393700137734413 -0.06525299698114395
v 0.03237500041723251 0.056074999272823334 -0.0005029999883845448
v 0.04393700137734413 0.07610200345516205 -0.06525299698114395
v 0 0.06475000083446503 -0.0005029999883845448
v 0 0.08787500113248825 -0.06525299698114395
v -0.03237500041723251 0.056074999272823334 -0.0005029999883845448
v -0.04393700137734413 0.07610200345516205 -0.06525299698114395
v -0.056074999272823334 0.03237500041723251 -0.0005029999883845448
v -0.07610200345516205 0.04393700137734413 -0.06525299698114395
v -0.06475000083446503 -0 -0.0005029999883845448
v -0.08787500113248825 -0 -0.06525299698114395
v -0.056074999272823334 -0.03237500041723251 -0.0005029999883845448
v -0.07610200345516205 -0.04393700137734413 -0.06525299698114395
v -0.03237500041723251 -0.056074999272823334 -0.0005029999883845448
v -0.04393700137734413 -0.07610200345516205 -0.06525299698114395
v 0 -0.06151200085878372 -0.13925300538539886
v 0.03075600042939186 -0.05327099934220314 -0.13925300538539886
v 0.05327099934220314 -0.03075600042939186 -0.13925300538539886
v 0.06151200085878372 0 -0.13925300538539886
v 0.05327099934220314 0.03075600042939186 -0.13925300538539886
v 0.03075600042939186 0.05327099934220314 -0.13925300538539886
v 0 0.06151200085878372 -0.13925300538539886
v -0.03075600042939186 0.05327099934220314 -0.13925300538539886
v -0.05327099934220314 0.03075600042939186 -0.13925300538539886
v -0.06151200085878372 0 -0.13925300538539886
v -0.05327099934220314 -0.03075600042939186 -0.13925300538539886
v -0.03075600042939186 -0.05327099934220314 -0.13925300538539886
v 0 0 -0.12537799775600433
vt 0.5 0.5
vt 0.5 0.5
vt 0.5 0.5
vt 0.5 0.5
vt 0.5 0.5
vt 0.5 0.5
vt 0.5 0.5
vt 0.5 0.5
vt 0.5 0.5
vt 0.5 0.5
vt 0.5 0.5
vt 0.5 0.5
vt 0.5 0.5
vt 0.5 0.5
vt 0.5 0.5
vt 0.5 0.5
vt 0.5 0.5
vt 0.5 0.5
vt 0.5 0.5
vt 0.5 0.5
vt 0.5 0.5
vt 0.5 0.5
vt 0.5 0.5
vt 0.5 0.5
vt 0.5 0.5
vt 0.5 0.5
vt 0.5 0.5
vt 0.5 0.5
vt 0.5 0.5
vt 0.5 0.5
vt 0.5 0.5
vt 0.5 0.5
vt 0.5 0.5
vt 0.5 0.5
vt 0.5 0.5
vt 0.5 0.5
vt 0.5 0.5
vt 0.5 0.5
vt 0.5 0.5
vt 0.5 0.5
vt 0.5 0.5
vt 0.5 0.5
vt 0.5 0.5
vt 0.5 0.5
vt 0.5 0.5
vt 0.5 0.5
vt 0.5 0.5
vt 0.5 0.5
vt 0.5 0.5
vt 0.5 0.5
vt 0.5 0.5
vt 0.5 0.5
vt 0.5 0.5
vt 0.5 0.5
vt 0.5 0.5
vt 0.5 0.5
vt 0.5 0.5
vt 0.5 0.5
vt 0.5 0.5
vt 0.5 0.5
vt 0.5 0.5
vn 0 -0.633400022983551 -0.7738000154495239
vn 0 -0.9861000180244446 -0.16609999537467957
vn 0.49300000071525574 -0.8539999723434448 -0.16609999537467957
vn 0.3167000114917755 -0.5485000014305115 -0.7738000154495239
vn 0.8539999723434448 -0.49300000071525574 -0.16609999537467957
vn 0.5485000014305115 -0.3167000114917755 -0.7738000154495239
vn 0.9861000180244446 0 -0.16609999537467957
vn 0.633400022983551 0 -0.7738000154495239
vn 0.8539999723434448 0.49300000071525574 -0.16609999537467957
vn 0.5485000014305115 0.3167000114917755 -0.7738000154495239
vn 0.49300000071525574 0.8539999723434448 -0.16609999537467957
vn 0.3167000114917755 0.5485000014305115 -0.7738000154495239
vn 0 0.9861000180244446 -0.16609999537467957
vn 0 0.633400022983551 -0.7738000154495239
vn -0.49300000071525574 0.8539999723434448 -0.16609999537467957
vn -0.3167000114917755 0.5485000014305115 -0.7738000154495239
vn -0.8539999723434448 0.49300000071525574 -0.16609999537467957
vn -0.5485000014305115 0.3167000114917755 -0.7738000154495239
vn -0.9861000180244446 0 -0.16609999537467957
vn -0.633400022983551 0 -0.7738000154495239
vn -0.8539999723434448 -0.49300000071525574 -0.16609999537467957
vn -0.5485000014305115 -0.3167000114917755 -0.7738000154495239
vn -0.49300000071525574 -0.8539999723434448 -0.16609999537467957
vn -0.3167000114917755 -0.5485000014305115 -0.7738000154495239
vn 0 -0.9861000180244446 0.16609999537467957
vn 0 -0.9416999816894531 0.33629998564720154
vn 0.4708999991416931 -0.815500020980835 0.33629998564720154
vn 0.49300000071525574 -0.8539999723434448 0.16609999537467957
vn 0.815500020980835 -0.4708999991416931 0.33629998564720154
vn 0.8539999723434448 -0.49300000071525574 0.16609999537467957
vn 0.9416999816894531 0 0.33629998564720154
vn 0.9861000180244446 0 0.16609999537467957
vn 0.815500020980835 0.4708999991416931 0.33629998564720154
vn 0.8539999723434448 0.49300000071525574 0.16609999537467957
vn 0.4708999991416931 0.815500020980835 0.33629998564720154
vn 0.49300000071525574 0.8539999723434448 0.16609999537467957
vn 0 0.9416999816894531 0.33629998564720154
vn 0 0.9861000180244446 0.16609999537467957
vn -0.4708999991416931 0.815500020980835 0.33629998564720154
vn -0.49300000071525574 0.8539999723434448 0.16609999537467957
vn -0.815500020980835 0.4708999991416931 0.33629998564720154
vn -0.8539999723434448 0.49300000071525574 0.16609999537467957
vn -0.9416999816894531 0 0.33629998564720154
vn -0.9861000180244446 0 0.16609999537467957
vn -0.815500020980835 -0.4708999991416931 0.33629998564720154
vn -0.8539999723434448 -0.49300000071525574 0.16609999537467957
vn -0.4708999991416931 -0.815500020980835 0.33629998564720154
vn -0.49300000071525574 -0.8539999723434448 0.16609999537467957
vn 0 0.09239999949932098 -0.9957000017166138
vn -0.04619999974966049 0.07999999821186066 -0.9957000017166138
vn -0.07999999821186066 0.04619999974966049 -0.9957000017166138
vn -0.09239999949932098 0 -0.9957000017166138
vn -0.07999999821186066 -0.04619999974966049 -0.9957000017166138
vn -0.04619999974966049 -0.07999999821186066 -0.9957000017166138
vn 0 -0.09239999949932098 -0.9957000017166138
vn 0.04619999974966049 -0.07999999821186066 -0.9957000017166138
vn 0.07999999821186066 -0.04619999974966049 -0.9957000017166138
vn 0.09239999949932098 0 -0.9957000017166138
vn 0.07999999821186066 0.04619999974966049 -0.9957000017166138
vn 0.04619999974966049 0.07999999821186066 -0.9957000017166138
vn 0 0 -1
f 27/27/27 26/26/26 25/25/25
f 25/25/25 28/28/28 27/27/27
f 29/29/29 27/27/27 28/28/28
f 48/48/48 25/25/25 26/26/26
f 26/26/26 47/47/47 48/48/48
f 28/28/28 30/30/30 29/29/29
f 31/31/31 29/29/29 30/30/30
f 46/46/46 48/48/48 47/47/47
f 47/47/47 45/45/45 46/46/46
f 30/30/30 32/32/32 31/31/31
f 33/33/33 31/31/31 32/32/32
f 44/44/44 46/46/46 45/45/45
f 45/45/45 43/43/43 44/44/44
f 32/32/32 34/34/34 33/33/33
f 35/35/35 33/33/33 34/34/34
f 42/42/42 44/44/44 43/43/43
f 43/43/43 41/41/41 42/42/42
f 34/34/34 36/36/36 35/35/35
f 37/37/37 35/35/35 36/36/36
f 40/40/40 42/42/42 41/41/41
f 41/41/41 39/39/39 40/40/40
f 39/39/39 37/37/37 38/38/38
f 38/38/38 40/40/40 39/39/39
f 36/36/36 38/38/38 37/37/37
f 42/42/42 40/40/40 15/15/15
f 40/40/40 38/38/38 13/13/13
f 13/13/13 15/15/15 40/40/40
f 38/38/38 36/36/36 11/11/11
f 11/11/11 13/13/13 38/38/38
f 36/36/36 34/34/34 9/9/9
f 9/9/9 11/11/11 36/36/36
f 34/34/34 32/32/32 7/7/7
f 7/7/7 9/9/9 34/34/34
f 5/5/5 7/7/7 32/32/32
f 32/32/32 30/30/30 5/5/5
f 9/9/9 7/7/7 8/8/8
f 3/3/3 5/5/5 30/30/30
f 30/30/30 28/28/28 3/3/3
f 7/7/7 5/5/5 6/6/6
f 6/6/6 8/8/8 7/7/7
f 5/5/5 3/3/3 4/4/4
f 4/4/4 6/6/6 5/5/5
f 2/2/2 3/3/3 28/28/28
f 28/28/28 25/25/25 2/2/2
f 1/1/1 4/4/4 3/3/3
f 3/3/3 2/2/2 1/1/1
f 23/23/23 2/2/2 25/25/25
f 25/25/25 48/48/48 23/23/23
f 24/24/24 1/1/1 2/2/2
f 2/2/2 23/23/23 24/24/24
f 21/21/21 23/23/23 48/48/48
f 48/48/48 46/46/46 21/21/21
f 22/22/22 24/24/24 23/23/23
f 23/23/23 21/21/21 22/22/22
f 19/19/19 21/21/21 46/46/46
f 46/46/46 44/44/44 19/19/19
f 20/20/20 22/22/22 21/21/21
f 21/21/21 19/19/19 20/20/20
f 17/17/17 19/19/19 44/44/44
f 44/44/44 42/42/42 17/17/17
f 15/15/15 17/17/17 42/42/42
f 18/18/18 20/20/20 19/19/19
f 19/19/19 17/17/17 18/18/18
f 17/17/17 15/15/15 16/16/16
f 16/16/16 18/18/18 17/17/17
f 22/22/22 20/20/20 58/58/58
f 20/20/20 18/18/18 57/57/57
f 57/57/57 58/58/58 20/20/20
f 18/18/18 16/16/16 56/56/56
f 56/56/56 57/57/57 18/18/18
f 58/58/58 59/59/59 22/22/22
f 24/24/24 22/22/22 59/59/59
f 58/58/58 57/57/57 61/61/61
f 59/59/59 58/58/58 61/61/61
f 57/57/57 56/56/56 61/61/61
f 59/59/59 60/60/60 24/24/24
f 1/1/1 24/24/24 60/60/60
f 60/60/60 59/59/59 61/61/61
f 60/60/60 49/49/49 1/1/1
f 49/49/49 60/60/60 61/61/61
f 4/4/4 1/1/1 49/49/49
f 49/49/49 50/50/50 4/4/4
f 50/50/50 49/49/49 61/61/61
f 6/6/6 4/4/4 50/50/50
f 50/50/50 51/51/51 6/6/6
f 51/51/51 50/50/50 61/61/61
f 8/8/8 6/6/6 51/51/51
f 56/56/56 55/55/55 61/61/61
f 55/55/55 56/56/56 16/16/16
f 51/51/51 52/52/52 8/8/8
f 52/52/52 51/51/51 61/61/61
f 16/16/16 14/14/14 55/55/55
f 14/14/14 16/16/16 15/15/15
f 15/15/15 13/13/13 14/14/14
f 55/55/55 54/54/54 61/61/61
f 54/54/54 55/55/55 14/14/14
f 12/12/12 14/14/14 13/13/13
f 14/14/14 12/12/12 54/54/54
f 13/13/13 11/11/11 12/12/12
f 54/54/54 53/53/53 61/61/61
f 53/53/53 54/54/54 12/12/12
f 53/53/53 52/52/52 61/61/61
f 10/10/10 12/12/12 11/11/11
f 12/12/12 10/10/10 53/53/53
f 52/52/52 53/53/53 10/10/10
f 10/10/10 8/8/8 52/52/52
f 11/11/11 9/9/9 10/10/10
f 8/8/8 10/10/10 9/9/9
