# VPXTOOL table OBJ file
# VPXTOOL OBJ file
# numVerts: 104 numFaces: 192
o Prim_LevelPlate
v 12.479883193969727 36.752933502197266 -17.989782333374023
v 12.479883193969727 36.75293731689453 -38.98978042602539
v -7.152318954467773 36.75293731689453 -38.98978042602539
v -7.152318954467773 36.752933502197266 -17.989782333374023
v 12.479883193969727 40.518558502197266 -17.989782333374023
v 12.479883193969727 40.51856231689453 -38.98978042602539
v 12.479883193969727 36.75293731689453 -38.98978042602539
v 12.479883193969727 36.752933502197266 -17.989782333374023
v -7.152318954467773 40.518558502197266 -17.989782333374023
v -7.152318954467773 40.51856231689453 -38.98978042602539
v 12.479883193969727 40.51856231689453 -38.98978042602539
v 12.479883193969727 40.518558502197266 -17.989782333374023
v -7.152318954467773 36.752933502197266 -17.989782333374023
v -7.152318954467773 36.75293731689453 -38.98978042602539
v -7.152318954467773 40.51856231689453 -38.98978042602539
v -7.152318954467773 40.518558502197266 -17.989782333374023
v -7.152318954467773 -40.38646697998047 -38.989803314208984
v 12.479883193969727 -36.62084197998047 -38.989803314208984
v -7.152318954467773 -36.62084197998047 -38.989803314208984
v 12.479883193969727 -40.38646697998047 -38.989803314208984
v 12.479883193969727 -40.386470794677734 -17.98980140686035
v 12.479883193969727 -40.38646697998047 -38.989803314208984
v -7.152318954467773 -40.38646697998047 -38.989803314208984
v -7.152318954467773 -40.386470794677734 -17.98980140686035
v 12.479883193969727 -36.620845794677734 -17.98980140686035
v 12.479883193969727 -36.62084197998047 -38.989803314208984
v 12.479883193969727 -40.38646697998047 -38.989803314208984
v 12.479883193969727 -40.386470794677734 -17.98980140686035
v -7.152318954467773 -36.620845794677734 -17.98980140686035
v -7.152318954467773 -36.62084197998047 -38.989803314208984
v 12.479883193969727 -36.62084197998047 -38.989803314208984
v 12.479883193969727 -36.620845794677734 -17.98980140686035
v -7.152318954467773 -40.386470794677734 -17.98980140686035
v -7.152318954467773 -40.38646697998047 -38.989803314208984
v -7.152318954467773 -36.62084197998047 -38.989803314208984
v -7.152318954467773 -36.620845794677734 -17.98980140686035
v -7.152318954467773 -56.709468841552734 -20.989805221557617
v 12.479883193969727 57.709354400634766 -20.989778518676758
v -7.152318954467773 57.709354400634766 -20.989778518676758
v 12.479883193969727 -56.709468841552734 -20.989805221557617
v 12.479883193969727 -56.709468841552734 -17.989805221557617
v 12.479883193969727 -56.709468841552734 -20.989805221557617
v -7.152318954467773 -56.709468841552734 -20.989805221557617
v -7.152318954467773 -56.709468841552734 -17.989805221557617
v 12.479883193969727 57.709354400634766 -17.989778518676758
v 12.479883193969727 57.709354400634766 -20.989778518676758
v 12.479883193969727 -56.709468841552734 -20.989805221557617
v 12.479883193969727 -56.709468841552734 -17.989805221557617
v -7.152318954467773 57.709354400634766 -17.989778518676758
v -7.152318954467773 57.709354400634766 -20.989778518676758
v 12.479883193969727 57.709354400634766 -20.989778518676758
v 12.479883193969727 57.709354400634766 -17.989778518676758
v -7.152318954467773 -56.709468841552734 -17.989805221557617
v -7.152318954467773 -56.709468841552734 -20.989805221557617
v -7.152318954467773 57.709354400634766 -20.989778518676758
v -7.152318954467773 57.709354400634766 -17.989778518676758
v -8.87548828125 84.2086181640625 -15.561324119567871
v -9.8753662109375 84.2086181640625 -17.293371200561523
v -7.4619140625 84.2086181640625 -17.992868423461914
v -11.833251953125 84.2086181640625 -15.335439682006836
v -7.200928211212158 84.2086181640625 -16.010019302368164
v 12.550048828125 84.2086181640625 -18.010019302368164
v 12.550048828125 84.2086181640625 -16.010019302368164
v -10.101318359375 84.2086181640625 -14.335470199584961
v -12.5328369140625 84.2086181640625 -12.921915054321289
v -10.550048828125 84.2086181640625 -12.660921096801758
v -12.550048828125 84.20861053466797 38.98981475830078
v -10.550048828125 84.20861053466797 38.98981475830078
v -10.550048828125 84.20861053466797 38.98981475830078
v -10.550048828125 -84.20862579345703 38.98973846435547
v -12.550048828125 -84.20862579345703 38.98973846435547
v -12.550048828125 84.20861053466797 38.98981475830078
v -10.550048828125 -84.2086181640625 -12.66099739074707
v -12.5328369140625 -84.2086181640625 -12.921991348266602
v -12.550048828125 -84.20862579345703 38.98973846435547
v -10.550048828125 -84.20862579345703 38.98973846435547
v -10.101318359375 -84.2086181640625 -14.335545539855957
v -11.833251953125 -84.2086181640625 -15.335515975952148
v -8.87548828125 -84.2086181640625 -15.561399459838867
v -9.8753662109375 -84.2086181640625 -17.293447494506836
v -7.4619140625 -84.2086181640625 -17.99294090270996
v -7.200928211212158 -84.2086181640625 -16.01009178161621
v 12.550048828125 -84.2086181640625 -18.01009178161621
v 12.550048828125 -84.2086181640625 -16.01009178161621
v -9.8753662109375 84.2086181640625 -17.293371200561523
v -9.8753662109375 -84.2086181640625 -17.293447494506836
v -7.4619140625 -84.2086181640625 -17.99294090270996
v -11.833251953125 84.2086181640625 -15.335439682006836
v -7.4619140625 84.2086181640625 -17.992868423461914
v -11.833251953125 -84.2086181640625 -15.335515975952148
v 12.550048828125 -84.2086181640625 -18.01009178161621
v 12.550048828125 84.2086181640625 -18.010019302368164
v -12.5328369140625 84.2086181640625 -12.921915054321289
v -12.5328369140625 -84.2086181640625 -12.921991348266602
v -12.550048828125 -84.20862579345703 38.98973846435547
v -12.550048828125 84.20861053466797 38.98981475830078
v 12.550048828125 -84.2086181640625 -16.01009178161621
v 12.550048828125 84.2086181640625 -16.010019302368164
v 12.550048828125 84.2086181640625 -18.010019302368164
v 12.550048828125 -84.2086181640625 -18.01009178161621
v -7.152318954467773 36.75293731689453 -38.98978042602539
v 12.479883193969727 40.51856231689453 -38.98978042602539
v -7.152318954467773 40.51856231689453 -38.98978042602539
v 12.479883193969727 36.75293731689453 -38.98978042602539
vt 0.5804700255393982 1
vt 0.5804700255393982 0
vt 0 0
vt 0 1
vt 0.5 1
vt 0.5 0
vt 0.5804700255393982 0
vt 0.5804700255393982 1
vt 0.0804700031876564 1
vt 0.0804700031876564 0
vt 0.5 0
vt 0.5 1
vt 0 1
vt 0 0
vt 0.0804700031876564 0
vt 0.0804700031876564 1
vt 0.9777560234069824 0.7890520095825195
vt 0.9983779788017273 0.790831983089447
vt 0.9777560234069824 0.790831983089447
vt 0.9983779788017273 0.7890520095825195
vt 0.5804700255393982 1
vt 0.5804700255393982 0
vt 0 0
vt 0 1
vt 0.5 1
vt 0.5 0
vt 0.5804700255393982 0
vt 0.5804700255393982 1
vt 0.0804700031876564 1
vt 0.0804700031876564 0
vt 0.5 0
vt 0.5 1
vt 0 1
vt 0 0
vt 0.0804700031876564 0
vt 0.0804700031876564 1
vt 0.9777560234069824 0.7813339829444885
vt 0.9983779788017273 0.8354330062866211
vt 0.9777560234069824 0.8354330062866211
vt 0.9983779788017273 0.7813339829444885
vt 0.9267730116844177 1
vt 0.9267730116844177 0
vt 0 0
vt 0 1
vt 0.5 1
vt 0.5 0
vt 0.9267730116844177 0
vt 0.9267730116844177 1
vt 0.4267730116844177 1
vt 0.4267730116844177 0
vt 0.5 0
vt 0.5 1
vt 0 1
vt 0 0
vt 0.4267730116844177 0
vt 0.4267730116844177 1
vt 0.8977929949760437 0.5208380222320557
vt 0.8928110003471375 0.5133950114250183
vt 0.9033880233764648 0.5095529556274414
vt 0.8846420049667358 0.522724986076355
vt 0.9051430225372314 0.5183359980583191
vt 0.9927099943161011 0.5035439729690552
vt 0.9933040142059326 0.5124819874763489
vt 0.89267897605896 0.5266790390014648
vt 0.8822330236434937 0.5337179899215698
vt 0.8911709785461426 0.5342960357666016
vt 0.8975600004196167 0.7656970024108887
vt 0.9064980149269104 0.7651039958000183
vt 0.012786000035703182 0.024893999099731445
vt 0.7083820104598999 0.024892985820770264
vt 0.7083079814910889 0.037033021450042725
vt 0.01271199993789196 0.03703498840332031
vt 0.9580649733543396 0.24795401096343994
vt 0.9669229984283447 0.2466229796409607
vt 0.9712650179862976 0.47906702756881714
vt 0.9623090028762817 0.4792320132255554
vt 0.9559190273284912 0.24049299955368042
vt 0.963591992855072 0.23587298393249512
vt 0.9503290057182312 0.2351049780845642
vt 0.9546639919281006 0.22726702690124512
vt 0.9437999725341797 0.2243329882621765
vt 0.9427940249443054 0.23323297500610352
vt 0.8542900085449219 0.22589898109436035
vt 0.854453980922699 0.23485398292541504
vt 0.5623840093612671 0.9999250173568726
vt 0.5623930096626282 0.07564401626586914
vt 0.5972179770469666 0.07571899890899658
vt 0.5275589823722839 0.9998639822006226
vt 0.5972089767456055 1
vt 0.5275670289993286 0.07558298110961914
vt 0.8163440227508545 0.07571899890899658
vt 0.8163319826126099 0.9999709725379944
vt 0.4927330017089844 0.9997889995574951
vt 0.49274200201034546 0.0755079984664917
vt 0.0007280000136233866 0.07550698518753052
vt 0.0007190000033006072 0.999770998954773
vt 0.7061920166015625 0.0627639889717102
vt 0.010595999658107758 0.06276798248291016
vt 0.01066999975591898 0.05062800645828247
vt 0.7062659859657288 0.05062299966812134
vt 0.9777560234069824 0.8255239725112915
vt 0.9983779788017273 0.827305018901825
vt 0.9777560234069824 0.827305018901825
vt 0.9983779788017273 0.8255239725112915
vn 0 -1 -0
vn 0 -1 -0
vn 0 -1 -0
vn 0 -1 -0
vn 1 0 0
vn 1 0 0
vn 1 0 0
vn 1 0 0
vn 0 1 0
vn 0 1 0
vn 0 1 0
vn 0 1 0
vn -1 0 0
vn -1 0 0
vn -1 0 0
vn -1 0 0
vn 0 0 -1
vn 0 0 -1
vn 0 0 -1
vn 0 0 -1
vn 0 -1 -0
vn 0 -1 -0
vn 0 -1 -0
vn 0 -1 -0
vn 1 0 0
vn 1 0 0
vn 1 0 0
vn 1 0 0
vn 0 1 0
vn 0 1 0
vn 0 1 0
vn 0 1 0
vn -1 0 0
vn -1 0 0
vn -1 0 0
vn -1 0 0
vn 0 0 -1
vn 0 0 -1
vn 0 0 -1
vn 0 0 -1
vn 0 -1 -0
vn 0 -1 -0
vn 0 -1 -0
vn 0 -1 -0
vn 1 0 0
vn 1 0 0
vn 1 0 0
vn 1 0 0
vn 0 1 0
vn 0 1 0
vn 0 1 0
vn 0 1 0
vn -1 0 0
vn -1 0 0
vn -1 0 0
vn -1 0 0
vn 0 1 0
vn 0 1 0
vn 0 1 0
vn 0 1 0
vn 0 1 0
vn 0 1 0
vn 0 1 0
vn 0 1 0
vn 0 1 0
vn 0 1 0
vn 0 1 0
vn 0 1 0
vn 0 -0 1
vn 0 -0 1
vn 0 -0 1
vn 0 -0 1
vn 0 -1 -0
vn 0 -1 -0
vn 0 -1 -0
vn 0 -1 -0
vn 0 -1 -0
vn 0 -1 -0
vn 0 -1 -0
vn 0 -1 -0
vn 0 -1 -0
vn 0 -1 -0
vn 0 -1 -0
vn 0 -1 -0
vn -0.5088000297546387 0 -0.8608999848365784
vn -0.5088000297546387 0 -0.8608999848365784
vn -0.14100000262260437 0 -0.9900000095367432
vn -0.8608999848365784 0 -0.5088000297546387
vn -0.14100000262260437 0 -0.9900000095367432
vn -0.8608999848365784 0 -0.5088000297546387
vn -0.0008999999845400453 0 -1
vn -0.0008999999845400453 0 -1
vn -0.9900000095367432 0 -0.14079999923706055
vn -0.9900000095367432 0 -0.14079999923706055
vn -1 0 -0.0003000000142492354
vn -1 0 -0.0003000000142492354
vn 1 0 0
vn 1 0 0
vn 1 0 0
vn 1 0 0
vn 0 0 -1
vn 0 0 -1
vn 0 0 -1
vn 0 0 -1
f 3/3/3 2/2/2 1/1/1
f 4/4/4 3/3/3 1/1/1
f 7/7/7 6/6/6 5/5/5
f 8/8/8 7/7/7 5/5/5
f 11/11/11 10/10/10 9/9/9
f 12/12/12 11/11/11 9/9/9
f 15/15/15 14/14/14 13/13/13
f 16/16/16 15/15/15 13/13/13
f 19/19/19 18/18/18 17/17/17
f 18/18/18 20/20/20 17/17/17
f 23/23/23 22/22/22 21/21/21
f 24/24/24 23/23/23 21/21/21
f 27/27/27 26/26/26 25/25/25
f 28/28/28 27/27/27 25/25/25
f 31/31/31 30/30/30 29/29/29
f 32/32/32 31/31/31 29/29/29
f 35/35/35 34/34/34 33/33/33
f 36/36/36 35/35/35 33/33/33
f 39/39/39 38/38/38 37/37/37
f 38/38/38 40/40/40 37/37/37
f 43/43/43 42/42/42 41/41/41
f 44/44/44 43/43/43 41/41/41
f 47/47/47 46/46/46 45/45/45
f 48/48/48 47/47/47 45/45/45
f 51/51/51 50/50/50 49/49/49
f 52/52/52 51/51/51 49/49/49
f 55/55/55 54/54/54 53/53/53
f 56/56/56 55/55/55 53/53/53
f 59/59/59 58/58/58 57/57/57
f 58/58/58 60/60/60 57/57/57
f 61/61/61 59/59/59 57/57/57
f 62/62/62 59/59/59 61/61/61
f 63/63/63 62/62/62 61/61/61
f 60/60/60 64/64/64 57/57/57
f 60/60/60 65/65/65 64/64/64
f 65/65/65 66/66/66 64/64/64
f 65/65/65 67/67/67 66/66/66
f 67/67/67 68/68/68 66/66/66
f 71/71/71 70/70/70 69/69/69
f 72/72/72 71/71/71 69/69/69
f 75/75/75 74/74/74 73/73/73
f 76/76/76 75/75/75 73/73/73
f 73/73/73 74/74/74 77/77/77
f 74/74/74 78/78/78 77/77/77
f 77/77/77 78/78/78 79/79/79
f 78/78/78 80/80/80 79/79/79
f 80/80/80 81/81/81 79/79/79
f 81/81/81 82/82/82 79/79/79
f 81/81/81 83/83/83 82/82/82
f 83/83/83 84/84/84 82/82/82
f 87/87/87 86/86/86 85/85/85
f 85/85/85 86/86/86 88/88/88
f 89/89/89 87/87/87 85/85/85
f 86/86/86 90/90/90 88/88/88
f 91/91/91 87/87/87 89/89/89
f 92/92/92 91/91/91 89/89/89
f 88/88/88 90/90/90 93/93/93
f 90/90/90 94/94/94 93/93/93
f 93/93/93 94/94/94 95/95/95
f 96/96/96 93/93/93 95/95/95
f 99/99/99 98/98/98 97/97/97
f 100/100/100 99/99/99 97/97/97
f 103/103/103 102/102/102 101/101/101
f 102/102/102 104/104/104 101/101/101
