# VPXTOOL table OBJ file
# VPXTOOL OBJ file
# numVerts: 60 numFaces: 162
o PinCab_Grills
v -0.15829800069332123 0.4032280147075653 -0.09754999727010727
v -0.16900500655174255 0.5114610195159912 -0.09047500044107437
v -0.7869499921798706 0.5114610195159912 -0.09047500044107437
v -0.8047080039978027 0.4032280147075653 -0.09754999727010727
v 0.013534000143408775 0.4587100148200989 -0.08328700065612793
v 0.07009600102901459 0.46126100420951843 -0.0831179991364479
v 0.10291600227355957 0.46486198902130127 -0.08287999778985977
v 0.11225400120019913 0.46828800439834595 -0.0826530009508133
v 0.11962500214576721 0.47565698623657227 -0.08216500282287598
v 0.12305399775505066 0.48499399423599243 -0.08154799789190292
v 0.12665900588035583 0.5177260041236877 -0.07938800007104874
v 0.12921400368213654 0.5741919875144958 -0.0756630003452301
v 0.12665900588035583 0.630657970905304 -0.07193800061941147
v 0.12305399775505066 0.6633909940719604 -0.06977999955415726
v 0.11962500214576721 0.6727280020713806 -0.06916499882936478
v 0.11225400120019913 0.6800959706306458 -0.06868100166320801
v 0.10291600227355957 0.6835219860076904 -0.0684560015797615
v 0.07009600102901459 0.6871230006217957 -0.06821899861097336
v 0.013532999902963638 0.6896740198135376 -0.06805100291967392
v -0.043028999119997025 0.6871230006217957 -0.06821899861097336
v -0.07584899663925171 0.6835219860076904 -0.0684560015797615
v -0.08518700301647186 0.6800959706306458 -0.06868000328540802
v -0.09255799651145935 0.6727280020713806 -0.06916499882936478
v -0.09598799794912338 0.6633909940719604 -0.06977999955415726
v -0.09959200024604797 0.630657970905304 -0.07193800061941147
v -0.10214599967002869 0.5741919875144958 -0.07566200196743011
v -0.09959100186824799 0.5177260041236877 -0.07938800007104874
v -0.09598600119352341 0.48499399423599243 -0.08154799789190292
v -0.09255699813365936 0.47565698623657227 -0.08216500282287598
v -0.08518599718809128 0.46828800439834595 -0.0826520025730133
v -0.07584699988365173 0.46486198902130127 -0.08287999778985977
v -0.04302800074219704 0.46126100420951843 -0.0831179991364479
v -0.857807993888855 0.5182390213012695 -0.07935299724340439
v -0.8552529811859131 0.5747050046920776 -0.07562699913978577
v -0.857807993888855 0.6311709880828857 -0.07190299779176712
v -0.861411988735199 0.6639040112495422 -0.06974399834871292
v -0.8648409843444824 0.6732410192489624 -0.06913100183010101
v -0.8722130060195923 0.6806089878082275 -0.06864699721336365
v -0.8815510272979736 0.6840350031852722 -0.06842199712991714
v -0.9143710136413574 0.6876360177993774 -0.0681850016117096
v -0.9709330201148987 0.6901869773864746 -0.06801799684762955
v -1.0274959802627563 0.6876360177993774 -0.06818599998950958
v -1.0603150129318237 0.6840350031852722 -0.06842199712991714
v -1.0696539878845215 0.6806089878082275 -0.06864699721336365
v -1.077025055885315 0.6732410192489624 -0.06913100183010101
v -1.0804539918899536 0.663902997970581 -0.0697460025548935
v -1.0840580463409424 0.6311709880828857 -0.0719040036201477
v -1.0866130590438843 0.5747050046920776 -0.07562900334596634
v -1.0840569734573364 0.5182390213012695 -0.07935400307178497
v -1.0804530382156372 0.48550599813461304 -0.08151400089263916
v -1.077023983001709 0.47616899013519287 -0.08213099837303162
v -1.0696519613265991 0.46880099177360535 -0.08261899650096893
v -1.0603140592575073 0.46537500619888306 -0.08284600079059601
v -1.02749502658844 0.46177399158477783 -0.08308500051498413
v -0.9709330201148987 0.4592230021953583 -0.08325300365686417
v -0.9143700003623962 0.46177399158477783 -0.08308500051498413
v -0.8815510272979736 0.46537500619888306 -0.08284600079059601
v -0.8722130060195923 0.46880099177360535 -0.08261799812316895
v -0.8648409843444824 0.47616899013519287 -0.08213099837303162
v -0.861411988735199 0.48550599813461304 -0.08151300251483917
vt 0.15708400309085846 0.0390779972076416
vt 0.3081650137901306 0.05399298667907715
vt 0.3081650137901306 0.9147319793701172
vt 0.15708400309085846 0.9394670128822327
vt 0.9499549865722656 0.7402839660644531
vt 0.9452000260353088 0.8454779982566833
vt 0.9384880065917969 0.9065150022506714
vt 0.9321029782295227 0.9238830208778381
vt 0.9183689951896667 0.937591016292572
vt 0.9009659886360168 0.9439690113067627
vt 0.8399569988250732 0.9506720304489136
vt 0.7347139716148376 0.9554250240325928
vt 0.6294710040092468 0.9506720304489136
vt 0.5684630274772644 0.9439690113067627
vt 0.5510600209236145 0.9375920295715332
vt 0.537326991558075 0.9238830208778381
vt 0.5309410095214844 0.9065150022506714
vt 0.5242289900779724 0.8454779982566833
vt 0.519474983215332 0.7402830123901367
vt 0.5242289900779724 0.6350879669189453
vt 0.5309410095214844 0.5740500092506409
vt 0.537326991558075 0.5566830039024353
vt 0.5510600209236145 0.5429739952087402
vt 0.5684630274772644 0.5365960001945496
vt 0.6294710040092468 0.5298939943313599
vt 0.7347139716148376 0.5251420140266418
vt 0.8399569988250732 0.529895007610321
vt 0.9009659886360168 0.5365979671478271
vt 0.9183689951896667 0.5429760217666626
vt 0.9321029782295227 0.5566849708557129
vt 0.9384880065917969 0.5740529894828796
vt 0.9452000260353088 0.6350899934768677
vt 0.8365399837493896 0.4684799909591675
vt 0.7312970161437988 0.4732319712638855
vt 0.6260539889335632 0.4684799909591675
vt 0.5650460124015808 0.4617769718170166
vt 0.5476430058479309 0.4553989768028259
vt 0.5339099764823914 0.44169002771377563
vt 0.527525007724762 0.4243220090866089
vt 0.52081298828125 0.36328500509262085
vt 0.5160580277442932 0.2580900192260742
vt 0.52081298828125 0.1528949737548828
vt 0.527525007724762 0.09185701608657837
vt 0.5339099764823914 0.0744900107383728
vt 0.5476430058479309 0.060781002044677734
vt 0.5650460124015808 0.05440300703048706
vt 0.6260550022125244 0.04770100116729736
vt 0.7312970161437988 0.042949020862579346
vt 0.8365399837493896 0.047702014446258545
vt 0.8975489735603333 0.05440497398376465
vt 0.9149519801139832 0.0607830286026001
vt 0.9286860227584839 0.07449197769165039
vt 0.9350709915161133 0.09185898303985596
vt 0.9417840242385864 0.15289700031280518
vt 0.946537971496582 0.2580909729003906
vt 0.9417840242385864 0.36328500509262085
vt 0.9350709915161133 0.4243220090866089
vt 0.9286860227584839 0.44168901443481445
vt 0.9149519801139832 0.4553989768028259
vt 0.8975489735603333 0.4617760181427002
vn 0 0.06520000100135803 -0.9979000091552734
vn 0 0.06520000100135803 -0.9979000091552734
vn 0 0.06520000100135803 -0.9979000091552734
vn 0 0.06520000100135803 -0.9979000091552734
vn -0 0.0658000037074089 -0.9977999925613403
vn -0 0.0658000037074089 -0.9977999925613403
vn -0 0.0658000037074089 -0.9977999925613403
vn -0 0.0658000037074089 -0.9977999925613403
vn -0 0.0658000037074089 -0.9977999925613403
vn -0 0.0658000037074089 -0.9977999925613403
vn -0 0.0658000037074089 -0.9977999925613403
vn -0 0.0658000037074089 -0.9977999925613403
vn -0 0.0658000037074089 -0.9977999925613403
vn -0 0.0658000037074089 -0.9977999925613403
vn -0 0.0658000037074089 -0.9977999925613403
vn -0 0.0658000037074089 -0.9977999925613403
vn -0 0.0658000037074089 -0.9977999925613403
vn -0 0.0658000037074089 -0.9977999925613403
vn -0 0.0658000037074089 -0.9977999925613403
vn -0 0.0658000037074089 -0.9977999925613403
vn -0 0.0658000037074089 -0.9977999925613403
vn -0 0.0658000037074089 -0.9977999925613403
vn -0 0.0658000037074089 -0.9977999925613403
vn -0 0.0658000037074089 -0.9977999925613403
vn -0 0.0658000037074089 -0.9977999925613403
vn -0 0.0658000037074089 -0.9977999925613403
vn -0 0.0658000037074089 -0.9977999925613403
vn -0 0.0658000037074089 -0.9977999925613403
vn -0 0.0658000037074089 -0.9977999925613403
vn -0 0.0658000037074089 -0.9977999925613403
vn -0 0.0658000037074089 -0.9977999925613403
vn -0 0.0658000037074089 -0.9977999925613403
vn -0 0.0658000037074089 -0.9977999925613403
vn -0 0.0658000037074089 -0.9977999925613403
vn -0 0.0658000037074089 -0.9977999925613403
vn -0 0.0658000037074089 -0.9977999925613403
vn -0 0.0658000037074089 -0.9977999925613403
vn -0 0.0658000037074089 -0.9977999925613403
vn -0 0.0658000037074089 -0.9977999925613403
vn -0 0.0658000037074089 -0.9977999925613403
vn -0 0.0658000037074089 -0.9977999925613403
vn -0 0.0658000037074089 -0.9977999925613403
vn -0 0.0658000037074089 -0.9977999925613403
vn -0 0.0658000037074089 -0.9977999925613403
vn -0 0.0658000037074089 -0.9977999925613403
vn -0 0.0658000037074089 -0.9977999925613403
vn -0 0.0658000037074089 -0.9977999925613403
vn -0 0.0658000037074089 -0.9977999925613403
vn -0 0.0658000037074089 -0.9977999925613403
vn -0 0.0658000037074089 -0.9977999925613403
vn -0 0.0658000037074089 -0.9977999925613403
vn -0 0.0658000037074089 -0.9977999925613403
vn -0 0.0658000037074089 -0.9977999925613403
vn -0 0.0658000037074089 -0.9977999925613403
vn -0 0.0658000037074089 -0.9977999925613403
vn -0 0.0658000037074089 -0.9977999925613403
vn -0 0.0658000037074089 -0.9977999925613403
vn -0 0.0658000037074089 -0.9977999925613403
vn -0 0.0658000037074089 -0.9977999925613403
vn -0 0.0658000037074089 -0.9977999925613403
f 3/3/3 2/2/2 1/1/1
f 4/4/4 3/3/3 1/1/1
f 7/7/7 6/6/6 5/5/5
f 8/8/8 7/7/7 5/5/5
f 9/9/9 8/8/8 5/5/5
f 10/10/10 9/9/9 5/5/5
f 11/11/11 10/10/10 5/5/5
f 12/12/12 11/11/11 5/5/5
f 13/13/13 12/12/12 5/5/5
f 14/14/14 13/13/13 5/5/5
f 15/15/15 14/14/14 5/5/5
f 16/16/16 15/15/15 5/5/5
f 17/17/17 16/16/16 5/5/5
f 18/18/18 17/17/17 5/5/5
f 19/19/19 18/18/18 5/5/5
f 20/20/20 19/19/19 5/5/5
f 21/21/21 20/20/20 5/5/5
f 22/22/22 21/21/21 5/5/5
f 23/23/23 22/22/22 5/5/5
f 24/24/24 23/23/23 5/5/5
f 25/25/25 24/24/24 5/5/5
f 26/26/26 25/25/25 5/5/5
f 27/27/27 26/26/26 5/5/5
f 28/28/28 27/27/27 5/5/5
f 29/29/29 28/28/28 5/5/5
f 30/30/30 29/29/29 5/5/5
f 31/31/31 30/30/30 5/5/5
f 32/32/32 31/31/31 5/5/5
f 35/35/35 34/34/34 33/33/33
f 36/36/36 35/35/35 33/33/33
f 37/37/37 36/36/36 33/33/33
f 38/38/38 37/37/37 33/33/33
f 39/39/39 38/38/38 33/33/33
f 40/40/40 39/39/39 33/33/33
f 41/41/41 40/40/40 33/33/33
f 42/42/42 41/41/41 33/33/33
f 43/43/43 42/42/42 33/33/33
f 44/44/44 43/43/43 33/33/33
f 45/45/45 44/44/44 33/33/33
f 46/46/46 45/45/45 33/33/33
f 47/47/47 46/46/46 33/33/33
f 48/48/48 47/47/47 33/33/33
f 49/49/49 48/48/48 33/33/33
f 50/50/50 49/49/49 33/33/33
f 51/51/51 50/50/50 33/33/33
f 52/52/52 51/51/51 33/33/33
f 53/53/53 52/52/52 33/33/33
f 54/54/54 53/53/53 33/33/33
f 55/55/55 54/54/54 33/33/33
f 56/56/56 55/55/55 33/33/33
f 57/57/57 56/56/56 33/33/33
f 58/58/58 57/57/57 33/33/33
f 59/59/59 58/58/58 33/33/33
f 60/60/60 59/59/59 33/33/33
