# VPXTOOL table OBJ file
# VPXTOOL OBJ file
# numVerts: 145 numFaces: 306
o TargetRubberNextToRampp
v 0.07201699912548065 0.309783011674881 -0.08904299885034561
v 0.07201699912548065 0.3312849998474121 -0.12357000261545181
v 0.030319999903440475 0.309783011674881 -0.08904299885034561
v 0.030319999903440475 0.3312849998474121 -0.12357000261545181
v 0.030319999903440475 0.2965419888496399 -0.04539399966597557
v 0.07201699912548065 0.2965419888496399 -0.04539399966597557
v 0.07201699912548065 0.29207101464271545 0
v 0.030319999903440475 0.29207101464271545 0
v 0.030319999903440475 0.2965419888496399 0.04539399966597557
v 0.07201699912548065 0.29207101464271545 0
v 0.030319999903440475 0.29207101464271545 0
v 0.07201699912548065 0.2965419888496399 0.04539399966597557
v 0.07201699912548065 0.309783011674881 0.08904299885034561
v 0.030319999903440475 0.309783011674881 0.08904299885034561
v 0.030319999903440475 0.3312849998474121 0.12357000261545181
v 0.07201699912548065 0.3312849998474121 0.12357000261545181
v 0.07201699912548065 0.7397210001945496 0.08904299885034561
v 0.07201699912548065 0.718218982219696 0.12357000261545181
v 0.030319999903440475 0.7397210001945496 0.08904299885034561
v 0.030319999903440475 0.718218982219696 0.12357000261545181
v 0.030319999903440475 0.7529619932174683 0.04539399966597557
v 0.07201699912548065 0.7529619932174683 0.04539399966597557
v 0.07201699912548065 0.7574319839477539 0
v 0.030319999903440475 0.7574319839477539 0
v 0.030319999903440475 0.7529619932174683 -0.04539399966597557
v 0.07201699912548065 0.7529619932174683 -0.04539399966597557
v 0.07201699912548065 0.7397210001945496 -0.08904299885034561
v 0.030319999903440475 0.7397210001945496 -0.08904299885034561
v 0.030319999903440475 0.718218982219696 -0.12357000261545181
v 0.07201699912548065 0.718218982219696 -0.12357000261545181
v 0.07201699912548065 0.5247520208358765 -0
v 0.07201699912548065 0.3312849998474121 -0.12357000261545181
v 0.07201699912548065 0.309783011674881 -0.08904299885034561
v 0.07201699912548065 0.2965419888496399 -0.04539399966597557
v 0.07201699912548065 0.29207101464271545 0
v 0.07201699912548065 0.2965419888496399 0.04539399966597557
v 0.07201699912548065 0.309783011674881 0.08904299885034561
v 0.07201699912548065 0.3312849998474121 0.12357000261545181
v 0.07201699912548065 0.718218982219696 0.12357000261545181
v 0.07201699912548065 0.7397210001945496 0.08904299885034561
v 0.07201699912548065 0.7529619932174683 0.04539399966597557
v 0.07201699912548065 0.7574319839477539 0
v 0.07201699912548065 0.7529619932174683 -0.04539399966597557
v 0.07201699912548065 0.7397210001945496 -0.08904299885034561
v 0.07201699912548065 0.718218982219696 -0.12357000261545181
v 0.030319999903440475 0.5247520208358765 -0
v 0.030319999903440475 0.309783011674881 -0.08904299885034561
v 0.030319999903440475 0.3312849998474121 -0.12357000261545181
v 0.030319999903440475 0.2965419888496399 -0.04539399966597557
v 0.030319999903440475 0.29207101464271545 0
v 0.030319999903440475 0.2965419888496399 0.04539399966597557
v 0.030319999903440475 0.309783011674881 0.08904299885034561
v 0.030319999903440475 0.3312849998474121 0.12357000261545181
v 0.030319999903440475 0.7397210001945496 0.08904299885034561
v 0.030319999903440475 0.718218982219696 0.12357000261545181
v 0.030319999903440475 0.7529619932174683 0.04539399966597557
v 0.030319999903440475 0.7574319839477539 0
v 0.030319999903440475 0.7529619932174683 -0.04539399966597557
v 0.030319999903440475 0.7397210001945496 -0.08904299885034561
v 0.030319999903440475 0.718218982219696 -0.12357000261545181
v 0.030319999903440475 0.3312849998474121 0.12357000261545181
v 0.030319999903440475 0.718218982219696 0.12357000261545181
v 0.07201699912548065 0.3312849998474121 0.12357000261545181
v 0.07201699912548065 0.718218982219696 0.12357000261545181
v 0.030319999903440475 0.3312849998474121 -0.12357000261545181
v 0.07201699912548065 0.3312849998474121 -0.12357000261545181
v 0.07201699912548065 0.718218982219696 -0.12357000261545181
v 0.030319999903440475 0.718218982219696 -0.12357000261545181
v 0.030319999903440475 0.6103150248527527 -0.0949999988079071
v 0.02084599994122982 0.002188999904319644 -0.0949999988079071
v 0.030319999903440475 0.002188999904319644 -0.0949999988079071
v 0.02084599994122982 0.6103150248527527 -0.0949999988079071
v 0.030319999903440475 0.6103150248527527 0.0949999988079071
v 0.02084599994122982 0.6103150248527527 -0.0949999988079071
v 0.030319999903440475 0.6103150248527527 -0.0949999988079071
v 0.02084599994122982 0.6103150248527527 0.0949999988079071
v 0.02084599994122982 0.002188999904319644 0.0949999988079071
v 0.02084599994122982 0.6103150248527527 0.0949999988079071
v 0.030319999903440475 0.6103150248527527 0.0949999988079071
v 0.030319999903440475 0.002188999904319644 0.0949999988079071
v 0.030319999903440475 0.6103150248527527 -0.0949999988079071
v 0.030319999903440475 0.002188999904319644 0.0949999988079071
v 0.030319999903440475 0.6103150248527527 0.0949999988079071
v 0.030319999903440475 0.002188999904319644 -0.0949999988079071
v 0.02084599994122982 0.6103150248527527 -0.0949999988079071
v 0.02084599994122982 0.6103150248527527 0.0949999988079071
v 0.02084599994122982 0.002188999904319644 0.0949999988079071
v 0.02084599994122982 0.002188999904319644 -0.0949999988079071
v 0.07201699912548065 0.5047569870948792 -0.0482730008661747
v 0.0815109983086586 0.5247520208358765 -0
v 0.07201699912548065 0.5247520208358765 -0.05225000157952309
v 0.07201699912548065 0.48780500888824463 -0.036945998668670654
v 0.07201699912548065 0.4764789938926697 -0.01999500021338463
v 0.07201699912548065 0.4725019931793213 0
v 0.07201699912548065 0.4764789938926697 0.01999500021338463
v 0.07201699912548065 0.48780500888824463 0.036945998668670654
v 0.07201699912548065 0.5047569870948792 0.0482730008661747
v 0.07201699912548065 0.5247520208358765 0.05225000157952309
v 0.07201699912548065 0.544746994972229 0.0482730008661747
v 0.07201699912548065 0.5616980195045471 0.036945998668670654
v 0.07201699912548065 0.5730249881744385 0.01999500021338463
v 0.07201699912548065 0.5770019888877869 0
v 0.07201699912548065 0.5730249881744385 -0.01999500021338463
v 0.07201699912548065 0.5616980195045471 -0.036945998668670654
v 0.07201699912548065 0.544746994972229 -0.0482730008661747
v -0.005685000214725733 0.7860000133514404 -0.09974999725818634
v -0.06253799796104431 0.2777499854564667 -0.09974999725818634
v -0.005685000214725733 0.2777499854564667 -0.09974999725818634
v -0.06253799796104431 0.7860000133514404 -0.09974999725818634
v -0.005685000214725733 0.7860000133514404 0.09974999725818634
v -0.06253799796104431 0.7860000133514404 -0.09974999725818634
v -0.005685000214725733 0.7860000133514404 -0.09974999725818634
v -0.06253799796104431 0.7860000133514404 0.09974999725818634
v -0.06253799796104431 0.2777499854564667 0.09974999725818634
v -0.06253799796104431 0.7860000133514404 0.09974999725818634
v -0.005685000214725733 0.7860000133514404 0.09974999725818634
v -0.005685000214725733 0.2777499854564667 0.09974999725818634
v -0.005685000214725733 0.7860000133514404 -0.09974999725818634
v -0.005685000214725733 0.2777499854564667 0.09974999725818634
v -0.005685000214725733 0.7860000133514404 0.09974999725818634
v -0.005685000214725733 0.2777499854564667 -0.09974999725818634
v -0.06253799796104431 0.2777499854564667 0.09974999725818634
v -0.005685000214725733 0.2777499854564667 0.09974999725818634
v -0.06253799796104431 0.2777499854564667 -0.09974999725818634
v -0.005685000214725733 0.2777499854564667 -0.09974999725818634
v -0.06253799796104431 0.7907500267028809 -0.10450000315904617
v -0.08148899674415588 0.0022499999031424522 -0.10450000315904617
v -0.06253799796104431 0.0022499999031424522 -0.10450000315904617
v -0.08148899674415588 0.7907500267028809 -0.10450000315904617
v -0.06253799796104431 0.7907500267028809 0.10450000315904617
v -0.08148899674415588 0.7907500267028809 -0.10450000315904617
v -0.06253799796104431 0.7907500267028809 -0.10450000315904617
v -0.08148899674415588 0.7907500267028809 0.10450000315904617
v -0.08148899674415588 0.0022499999031424522 0.10450000315904617
v -0.08148899674415588 0.7907500267028809 0.10450000315904617
v -0.06253799796104431 0.7907500267028809 0.10450000315904617
v -0.06253799796104431 0.0022499999031424522 0.10450000315904617
v -0.06253799796104431 0.7907500267028809 -0.10450000315904617
v -0.06253799796104431 0.0022499999031424522 0.10450000315904617
v -0.06253799796104431 0.7907500267028809 0.10450000315904617
v -0.06253799796104431 0.0022499999031424522 -0.10450000315904617
v -0.08148899674415588 0.7907500267028809 -0.10450000315904617
v -0.08148899674415588 0.7907500267028809 0.10450000315904617
v -0.08148899674415588 0.0022499999031424522 0.10450000315904617
v -0.08148899674415588 0.0022499999031424522 -0.10450000315904617
vt 0.07522500306367874 0.5983749628067017
vt 0.11262299865484238 0.5983749628067017
vt 0.07522500306367874 0.6296249628067017
vt 0.11262299865484238 0.6296249628067017
vt 0.03758599981665611 0.6296249628067017
vt 0.03758599981665611 0.5983749628067017
vt 0 0.5983749628067017
vt 0 0.6296249628067017
vt 0.962414026260376 0.6296249628067017
vt 1 0.5983749628067017
vt 1 0.6296249628067017
vt 0.962414026260376 0.5983749628067017
vt 0.9252989888191223 0.5983749628067017
vt 0.9252989888191223 0.6296249628067017
vt 0.8877720236778259 0.6296249628067017
vt 0.8877720236778259 0.5983749628067017
vt 0.5752170085906982 0.5983749628067017
vt 0.612729012966156 0.5983749628067017
vt 0.5752170085906982 0.6296249628067017
vt 0.612729012966156 0.6296249628067017
vt 0.5375779867172241 0.6296249628067017
vt 0.5375779867172241 0.5983749628067017
vt 0.4999760091304779 0.5983749628067017
vt 0.4999760091304779 0.6296249628067017
vt 0.4623909890651703 0.6296249628067017
vt 0.4623909890651703 0.5983749628067017
vt 0.4252749979496002 0.5983749628067017
vt 0.4252749979496002 0.6296249628067017
vt 0.3876659870147705 0.6296249628067017
vt 0.3876659870147705 0.5983749628067017
vt 0.35045599937438965 0.29178500175476074
vt 0.5046790242195129 0.5332430005073547
vt 0.46158701181411743 0.5600789785385132
vt 0.4071100056171417 0.5766040086746216
vt 0.35045599937438965 0.5821839570999146
vt 0.2938019931316376 0.5766040086746216
vt 0.23932500183582306 0.5600789785385132
vt 0.19623200595378876 0.5332430005073547
vt 0.19623200595378876 0.050325989723205566
vt 0.23932500183582306 0.02349001169204712
vt 0.2938019931316376 0.006964981555938721
vt 0.35045599937438965 0.0013849735260009766
vt 0.4071100056171417 0.006964981555938721
vt 0.46158701181411743 0.02349001169204712
vt 0.5046790242195129 0.050325989723205566
vt 0.1688220053911209 0.8573520183563232
vt 0.11625699698925018 0.9842560291290283
vt 0.09587399661540985 0.9715620279312134
vt 0.14202499389648438 0.9920719861984253
vt 0.1688220053911209 0.9947119951248169
vt 0.19562000036239624 0.9920719861984253
vt 0.22138699889183044 0.9842560291290283
vt 0.24176999926567078 0.9715620279312134
vt 0.22138699889183044 0.7304489612579346
vt 0.24176999926567078 0.7431420087814331
vt 0.19562000036239624 0.7226319909095764
vt 0.1688220053911209 0.719992995262146
vt 0.14202499389648438 0.7226319909095764
vt 0.11625699698925018 0.7304489612579346
vt 0.09587399661540985 0.7431420087814331
vt 0.8877720236778259 0.6296249628067017
vt 0.612729012966156 0.6296249628067017
vt 0.8877720236778259 0.5983749628067017
vt 0.612729012966156 0.5983749628067017
vt 0.11262299865484238 0.6296249628067017
vt 0.11262299865484238 0.5983749628067017
vt 0.3876659870147705 0.5983749628067017
vt 0.3876659870147705 0.6296249628067017
vt 0.8582680225372314 0.19923502206802368
vt 0.8723909854888916 0.5804120302200317
vt 0.8582680225372314 0.5804120302200317
vt 0.8723909854888916 0.19923502206802368
vt 0.7391759753227234 0.19923502206802368
vt 0.8581719994544983 0.17927902936935425
vt 0.8582680225372314 0.19923502206802368
vt 0.7391120195388794 0.17927902936935425
vt 0.7249780297279358 0.5804120302200317
vt 0.7249780297279358 0.19923502206802368
vt 0.7391759753227234 0.19923502206802368
vt 0.7391759753227234 0.5804120302200317
vt 0.8582680225372314 0.19923502206802368
vt 0.7391759753227234 0.5804120302200317
vt 0.7391759753227234 0.19923502206802368
vt 0.8582680225372314 0.5804120302200317
vt 0.8723909854888916 0.19923502206802368
vt 0.9914829730987549 0.19923502206802368
vt 0.9914829730987549 0.5804120302200317
vt 0.8723909854888916 0.5804120302200317
vt 0.9874539971351624 0.1198580265045166
vt 0.9105989933013916 0.08802402019500732
vt 0.9937859773635864 0.08802402019500732
vt 0.9694210290908813 0.1468459963798523
vt 0.9424329996109009 0.16487902402877808
vt 0.9105989933013916 0.17121100425720215
vt 0.8787639737129211 0.16487902402877808
vt 0.8517760038375854 0.1468459963798523
vt 0.8337439894676208 0.1198580265045166
vt 0.8274109959602356 0.08802402019500732
vt 0.8337439894676208 0.056189000606536865
vt 0.8517760038375854 0.029201984405517578
vt 0.8787639737129211 0.011169016361236572
vt 0.9105989933013916 0.004836022853851318
vt 0.9424329996109009 0.011169016361236572
vt 0.9694210290908813 0.029201984405517578
vt 0.9874539971351624 0.056189000606536865
vt 0.4983069896697998 0.6793810129165649
vt 0.5303739905357361 0.961404025554657
vt 0.4983069896697998 0.961404025554657
vt 0.5303739905357361 0.6793810129165649
vt 0.38640299439430237 0.6793810129165649
vt 0.4983069896697998 0.6461160182952881
vt 0.4983069896697998 0.6793810129165649
vt 0.38640299439430237 0.6461160182952881
vt 0.3547379970550537 0.961404025554657
vt 0.3547379970550537 0.6793810129165649
vt 0.38640299439430237 0.6793810129165649
vt 0.38640299439430237 0.961404025554657
vt 0.4983069896697998 0.6793810129165649
vt 0.38640299439430237 0.961404025554657
vt 0.38640299439430237 0.6793810129165649
vt 0.4983069896697998 0.961404025554657
vt 0.38640299439430237 0.9932960271835327
vt 0.38640299439430237 0.961404025554657
vt 0.4983069896697998 0.9932960271835327
vt 0.4983069896697998 0.961404025554657
vt 0.5721349716186523 0.851701021194458
vt 0.9956640005111694 0.8295069932937622
vt 0.9956640005111694 0.851701021194458
vt 0.5721349716186523 0.8295069932937622
vt 0.5721349716186523 0.9751160144805908
vt 0.5514870285987854 0.851701021194458
vt 0.5721349716186523 0.851701021194458
vt 0.5514870285987854 0.9751160144805908
vt 0.9956640005111694 0.9962900280952454
vt 0.5721349716186523 0.9962900280952454
vt 0.5721349716186523 0.9751160144805908
vt 0.9956640005111694 0.9751160144805908
vt 0.5721349716186523 0.851701021194458
vt 0.9956640005111694 0.9751160144805908
vt 0.5721349716186523 0.9751160144805908
vt 0.9956640005111694 0.851701021194458
vt 0.5721349716186523 0.8295069932937622
vt 0.5721349716186523 0.7060199975967407
vt 0.9956640005111694 0.7060199975967407
vt 0.9956640005111694 0.8295069932937622
vn 0 -0.9107030034065247 -0.4129759967327118
vn 0 -0.8488420248031616 -0.5286110043525696
vn 0 -0.9107030034065247 -0.4129759967327118
vn 0 -0.8488420248031616 -0.5286110043525696
vn 0 -0.9807729721069336 -0.19507400691509247
vn 0 -0.9807729721069336 -0.19507400691509247
vn 0 -1 0
vn 0 -1 0
vn 0 -0.9807729721069336 0.19507400691509247
vn 0 -1 0
vn 0 -1 0
vn 0 -0.9807729721069336 0.19507400691509247
vn 0 -0.9107030034065247 0.4129759967327118
vn 0 -0.9107030034065247 0.4129759967327118
vn 0 -0.8488420248031616 0.5286110043525696
vn 0 -0.8488420248031616 0.5286110043525696
vn 0 0.9107030034065247 0.4129759967327118
vn 0 0.8488420248031616 0.5286110043525696
vn 0 0.9107030034065247 0.4129759967327118
vn 0 0.8488420248031616 0.5286110043525696
vn 0 0.9807729721069336 0.19507400691509247
vn 0 0.9807729721069336 0.19507400691509247
vn 0 1 0
vn 0 1 0
vn 0 0.9807729721069336 -0.19507400691509247
vn 0 0.9807729721069336 -0.19507400691509247
vn 0 0.9107030034065247 -0.4129759967327118
vn 0 0.9107030034065247 -0.4129759967327118
vn 0 0.8488420248031616 -0.5286110043525696
vn 0 0.8488420248031616 -0.5286110043525696
vn 0.9999690055847168 0 0
vn 1 0 0
vn 0.9999690055847168 0 0
vn 0.9999690055847168 0 0
vn 1 0 0
vn 0.9999690055847168 0 0
vn 0.9999690055847168 0 0
vn 1 0 0
vn 1 0 0
vn 1 0 0
vn 1 0 0
vn 1 0 0
vn 0.9999690055847168 0 0
vn 1 0 0
vn 1 0 0
vn -0.9999690055847168 0 0
vn -0.9999690055847168 0 0
vn -1 0 0
vn -0.9999690055847168 0 0
vn -1 0 0
vn -0.9999690055847168 0 0
vn -0.9999690055847168 0 0
vn -1 0 0
vn -1 0 0
vn -1 0 0
vn -1 0 0
vn -1 0 0
vn -0.9999690055847168 0 0
vn -1 0 0
vn -1 0 0
vn 0 0 1
vn 0 0 0.9999690055847168
vn 0 0 0.9999690055847168
vn 0 0 1
vn 0 0 -0.9999690055847168
vn 0 0 -1
vn 0 0 -0.9999690055847168
vn 0 0 -1
vn 0 0 -1
vn 0 0 -1
vn 0 0 -1
vn 0 0 -1
vn 0 1 0
vn 0 1 0
vn 0 1 0
vn 0 1 0
vn 0 0 1
vn 0 0 1
vn 0 0 1
vn 0 0 1
vn 1 0 0
vn 1 0 0
vn 1 0 0
vn 1 0 0
vn -1 0 0
vn -1 0 0
vn -1 0 0
vn -1 0 0
vn 0.9838860034942627 -0.06839200109243393 -0.1651660054922104
vn 1 0 0
vn 0.9838860034942627 0 -0.1787469983100891
vn 0.9838860034942627 -0.12640799582004547 -0.12640799582004547
vn 0.9838860034942627 -0.1651660054922104 -0.06839200109243393
vn 0.9838860034942627 -0.1787469983100891 0
vn 0.9838860034942627 -0.1651660054922104 0.06839200109243393
vn 0.9838860034942627 -0.12640799582004547 0.12640799582004547
vn 0.9838860034942627 -0.06839200109243393 0.1651660054922104
vn 0.9838860034942627 0 0.1787469983100891
vn 0.9838860034942627 0.06839200109243393 0.1651660054922104
vn 0.9838860034942627 0.12640799582004547 0.12640799582004547
vn 0.9838860034942627 0.1651660054922104 0.06839200109243393
vn 0.9838860034942627 0.1787469983100891 0
vn 0.9838860034942627 0.1651660054922104 -0.06839200109243393
vn 0.9838860034942627 0.12640799582004547 -0.12640799582004547
vn 0.9838860034942627 0.06839200109243393 -0.1651660054922104
vn 0 0 -0.9999690055847168
vn 0 0 -0.9999690055847168
vn 0 0 -1
vn 0 0 -1
vn 0 1 0
vn 0 1 0
vn 0 1 0
vn 0 1 0
vn 0 0 0.9999690055847168
vn 0 0 1
vn 0 0 0.9999690055847168
vn 0 0 1
vn 1 0 0
vn 1 0 0
vn 1 0 0
vn 1 0 0
vn 0 -1 0
vn 0 -1 0
vn 0 -1 0
vn 0 -1 0
vn 0 0 -1
vn 0 0 -1
vn 0 0 -1
vn 0 0 -1
vn 0 1 0
vn 0 1 0
vn 0 1 0
vn 0 1 0
vn 0 0 1
vn 0 0 1
vn 0 0 1
vn 0 0 1
vn 1 0 0
vn 1 0 0
vn 1 0 0
vn 1 0 0
vn -1 0 0
vn -1 0 0
vn -1 0 0
vn -1 0 0
f 63/63/63 62/62/62 61/61/61
f 62/62/62 63/63/63 64/64/64
f 3/3/3 2/2/2 1/1/1
f 4/4/4 2/2/2 3/3/3
f 3/3/3 1/1/1 5/5/5
f 1/1/1 6/6/6 5/5/5
f 5/5/5 6/6/6 8/8/8
f 8/8/8 6/6/6 7/7/7
f 11/11/11 10/10/10 9/9/9
f 10/10/10 12/12/12 9/9/9
f 9/9/9 12/12/12 14/14/14
f 14/14/14 12/12/12 13/13/13
f 14/14/14 13/13/13 15/15/15
f 13/13/13 16/16/16 15/15/15
f 19/19/19 18/18/18 17/17/17
f 20/20/20 18/18/18 19/19/19
f 19/19/19 17/17/17 21/21/21
f 17/17/17 22/22/22 21/21/21
f 21/21/21 22/22/22 24/24/24
f 24/24/24 22/22/22 23/23/23
f 24/24/24 23/23/23 25/25/25
f 23/23/23 26/26/26 25/25/25
f 25/25/25 26/26/26 28/28/28
f 28/28/28 26/26/26 27/27/27
f 28/28/28 27/27/27 29/29/29
f 27/27/27 30/30/30 29/29/29
f 33/33/33 32/32/32 31/31/31
f 32/32/32 45/45/45 31/31/31
f 34/34/34 33/33/33 31/31/31
f 45/45/45 44/44/44 31/31/31
f 35/35/35 34/34/34 31/31/31
f 44/44/44 43/43/43 31/31/31
f 36/36/36 35/35/35 31/31/31
f 43/43/43 42/42/42 31/31/31
f 37/37/37 36/36/36 31/31/31
f 42/42/42 41/41/41 31/31/31
f 38/38/38 37/37/37 31/31/31
f 41/41/41 40/40/40 31/31/31
f 31/31/31 39/39/39 38/38/38
f 40/40/40 39/39/39 31/31/31
f 48/48/48 47/47/47 46/46/46
f 46/46/46 60/60/60 48/48/48
f 47/47/47 49/49/49 46/46/46
f 59/59/59 60/60/60 46/46/46
f 49/49/49 50/50/50 46/46/46
f 58/58/58 59/59/59 46/46/46
f 50/50/50 51/51/51 46/46/46
f 57/57/57 58/58/58 46/46/46
f 51/51/51 52/52/52 46/46/46
f 56/56/56 57/57/57 46/46/46
f 52/52/52 53/53/53 46/46/46
f 54/54/54 56/56/56 46/46/46
f 53/53/53 55/55/55 46/46/46
f 55/55/55 54/54/54 46/46/46
f 67/67/67 66/66/66 65/65/65
f 65/65/65 68/68/68 67/67/67
f 71/71/71 70/70/70 69/69/69
f 70/70/70 72/72/72 69/69/69
f 75/75/75 74/74/74 73/73/73
f 74/74/74 76/76/76 73/73/73
f 79/79/79 78/78/78 77/77/77
f 79/79/79 77/77/77 80/80/80
f 83/83/83 82/82/82 81/81/81
f 82/82/82 84/84/84 81/81/81
f 87/87/87 86/86/86 85/85/85
f 87/87/87 85/85/85 88/88/88
f 91/91/91 90/90/90 89/89/89
f 89/89/89 90/90/90 92/92/92
f 105/105/105 90/90/90 91/91/91
f 92/92/92 90/90/90 93/93/93
f 104/104/104 90/90/90 105/105/105
f 93/93/93 90/90/90 94/94/94
f 103/103/103 90/90/90 104/104/104
f 94/94/94 90/90/90 95/95/95
f 102/102/102 90/90/90 103/103/103
f 95/95/95 90/90/90 96/96/96
f 101/101/101 90/90/90 102/102/102
f 96/96/96 90/90/90 97/97/97
f 100/100/100 90/90/90 101/101/101
f 97/97/97 90/90/90 98/98/98
f 99/99/99 90/90/90 100/100/100
f 98/98/98 90/90/90 99/99/99
f 108/108/108 107/107/107 106/106/106
f 107/107/107 109/109/109 106/106/106
f 112/112/112 111/111/111 110/110/110
f 111/111/111 113/113/113 110/110/110
f 116/116/116 115/115/115 114/114/114
f 116/116/116 114/114/114 117/117/117
f 120/120/120 119/119/119 118/118/118
f 119/119/119 121/121/121 118/118/118
f 124/124/124 123/123/123 122/122/122
f 123/123/123 124/124/124 125/125/125
f 128/128/128 127/127/127 126/126/126
f 127/127/127 129/129/129 126/126/126
f 132/132/132 131/131/131 130/130/130
f 131/131/131 133/133/133 130/130/130
f 136/136/136 135/135/135 134/134/134
f 136/136/136 134/134/134 137/137/137
f 140/140/140 139/139/139 138/138/138
f 139/139/139 141/141/141 138/138/138
f 144/144/144 143/143/143 142/142/142
f 144/144/144 142/142/142 145/145/145
