# VPXTOOL table OBJ file
# VPXTOOL OBJ file
# numVerts: 45 numFaces: 105
o bracket027
v 6.414642333984375 31.4820556640625 -22.95000457763672
v -8.68487548828125 32.0936279296875 -22.950000762939453
v -8.68487548828125 18.967529296875 -22.950000762939453
v -8.68487548828125 0.496551513671875 -22.95000457763672
v 6.414642333984375 31.4820556640625 22.950000762939453
v 6.7548828125 -32.01739501953125 22.95000457763672
v 6.7548828125 -32.017364501953125 -21.25
v -8.68487548828125 -31.40582275390625 -22.950000762939453
v 6.7548828125 -32.017364501953125 -22.95000457763672
v -8.68487548828125 -18.07354736328125 -22.950000762939453
v -8.68487548828125 -18.07354736328125 -22.949996948242188
v -8.68487548828125 -18.07354736328125 -21.249996185302734
v -8.68487548828125 0.496551513671875 -21.25
v -8.68487548828125 -31.40582275390625 -22.949996948242188
v 8.68487548828125 -32.093597412109375 -22.949996948242188
v 6.7548828125 -32.017364501953125 -21.25
v 8.344635009765625 31.405487060546875 22.950000762939453
v 8.344635009765625 31.405487060546875 -22.950000762939453
v 8.5150146484375 -0.39105224609375 -22.949996948242188
v 6.414642333984375 31.4820556640625 -21.25
v -8.68487548828125 32.0936279296875 -21.249996185302734
v -8.68487548828125 32.0936279296875 -22.949996948242188
v 6.58502197265625 -0.314666748046875 -22.95000457763672
v 8.344635009765625 31.405487060546875 22.950000762939453
v 6.414642333984375 31.4820556640625 22.950000762939453
v 8.5150146484375 -0.391082763671875 22.95000457763672
v 8.68487548828125 -32.093597412109375 -22.949996948242188
v 8.68487548828125 -32.0936279296875 22.95000457763672
v 6.7548828125 -32.01739501953125 22.95000457763672
v 6.7548828125 -32.01739501953125 22.95000457763672
v 8.68487548828125 -32.0936279296875 22.95000457763672
v 8.344635009765625 31.405487060546875 22.950000762939453
v -8.68487548828125 18.967529296875 -22.949996948242188
v -8.68487548828125 18.967529296875 -21.249996185302734
v -8.68487548828125 32.0936279296875 -21.249996185302734
v -8.68487548828125 -31.40582275390625 -22.949996948242188
v -8.68487548828125 -31.40582275390625 -21.249996185302734
v -8.68487548828125 0.496551513671875 -22.950000762939453
v 6.414642333984375 31.4820556640625 -21.25
v -8.68487548828125 -31.40582275390625 -21.249996185302734
v 8.344635009765625 31.405487060546875 -22.950000762939453
v -8.68487548828125 -8.80224609375 -22.950000762939453
v 8.68487548828125 -32.0936279296875 22.95000457763672
v 6.414642333984375 31.4820556640625 22.950000762939453
v -8.68487548828125 32.0936279296875 -22.949996948242188
vt 0.11911000311374664 0.49898797273635864
vt 0.0001539999939268455 0.49417001008987427
vt 0.0001539999939268455 0.5975790023803711
vt 0.0001539999939268455 0.7430959939956665
vt 0.8471189737319946 0.499580979347229
vt 0.8471189737319946 0.9998459815979004
vt 0.4989050030708313 0.9998459815979004
vt 0.0001539999939268455 0.9944279789924622
vt 0.12179099768400192 0.9992460012435913
vt 0.0001539999939268455 0.8893939852714539
vt 0.8941289782524109 0.0969190001487732
vt 0.8941289782524109 0.08352601528167725
vt 0.7478299736976624 0.08352601528167725
vt 0.628180980682373 0.11273497343063354
vt 0.4989050030708313 0.1579279899597168
vt 0.517687976360321 0.16554898023605347
vt 0.4959160089492798 0.4976530075073242
vt 0.13431400060653687 0.49959099292755127
vt 0.13565699756145477 0.7500879764556885
vt 0.7519609928131104 0.15106201171875
vt 0.632906973361969 0.15106201171875
vt 0.632906973361969 0.13766902685165405
vt 0.12045200169086456 0.749487042427063
vt 0.7671779990196228 0.49927401542663574
vt 0.7519609928131104 0.49927401542663574
vt 0.4972589910030365 0.7481510043144226
vt 0.13699500262737274 0.9998459815979004
vt 0.6182349920272827 0.49927401542663574
vt 0.6326000094413757 0.4942520260810852
vt 0.9991639852523804 0.1124269962310791
vt 0.9998459815979004 0.09722602367401123
vt 0.4995900094509125 0.09722602367401123
vt 0.6023139953613281 0.09691798686981201
vt 0.6023139953613281 0.08352601528167725
vt 0.4989050030708313 0.08352601528167725
vt 0.9991639852523804 0.0969190001487732
vt 0.9991639852523804 0.08352601528167725
vt 0.7478299736976624 0.0969190001487732
vt 0.4989050030708313 0.499580979347229
vt 0.6326000094413757 0.12537699937820435
vt 0.7671779990196228 0.13766902685165405
vt 0.0001539999939268455 0.8163529634475708
vt 0.49859800934791565 0.9979079961776733
vt 0.4989050030708313 0.11242800951004028
vt 0.4989050030708313 0.09691798686981201
vn 0 0 -1
vn 0 0 -1
vn 0 0 -1
vn 0 0 -1
vn -1 -0.0052999998442828655 0
vn -1 -0.0052999998442828655 0
vn -1 -0.0052999998442828655 0
vn 0 0 -1
vn 0 0 -1
vn 0 0 -1
vn 1 0 0
vn 1 0 0
vn 1 0 0
vn 0.03959999978542328 0.9991999864578247 0
vn 0.039500001817941666 0.9991999864578247 0
vn 0.039500001817941666 0.9991999864578247 0
vn 1 0.0052999998442828655 0
vn 0.6970000267028809 0.003700000001117587 -0.7170000076293945
vn 0.707099974155426 0.003800000064074993 -0.707099974155426
vn 0.03999999910593033 0.9991999864578247 0.00039999998989515007
vn 0.04050000011920929 0.9991999864578247 0
vn 0.04039999842643738 0.9991999864578247 0
vn 0 0 -1
vn 0.03959999978542328 0.9991999864578247 0
vn 0.03959999978542328 0.9991999864578247 0
vn 1 0.0052999998442828655 0
vn 0.717199981212616 0.003800000064074993 -0.6967999935150146
vn 0.039500001817941666 0.9991999864578247 0
vn 0.039500001817941666 0.9991999864578247 0
vn 0 0 -1
vn 0 0 -1
vn 0 0 -1
vn 1 0 0
vn 1 0 0
vn 1 0 0
vn 1 0 0
vn 1 0 0
vn 1 0 0
vn -1 -0.0052999998442828655 0
vn 0.03959999978542328 0.9991999864578247 0
vn 0.039900001138448715 0.9991999864578247 0.00039999998989515007
vn 0 0 -1
vn 1 0.0052999998442828655 0
vn 0 0 -1
vn 1 0 0
f 7/7/7 6/6/6 5/5/5
f 39/39/39 7/7/7 5/5/5
f 3/3/3 2/2/2 1/1/1
f 3/3/3 1/1/1 4/4/4
f 4/4/4 1/1/1 23/23/23
f 42/42/42 4/4/4 23/23/23
f 1/1/1 18/18/18 23/23/23
f 42/42/42 23/23/23 10/10/10
f 10/10/10 9/9/9 8/8/8
f 23/23/23 9/9/9 10/10/10
f 18/18/18 19/19/19 23/23/23
f 23/23/23 19/19/19 9/9/9
f 19/19/19 18/18/18 17/17/17
f 19/19/19 27/27/27 9/9/9
f 26/26/26 19/19/19 17/17/17
f 27/27/27 19/19/19 26/26/26
f 43/43/43 27/27/27 26/26/26
f 13/13/13 12/12/12 11/11/11
f 11/11/11 12/12/12 36/36/36
f 12/12/12 37/37/37 36/36/36
f 38/38/38 13/13/13 11/11/11
f 34/34/34 13/13/13 38/38/38
f 33/33/33 34/34/34 38/38/38
f 35/35/35 34/34/34 33/33/33
f 45/45/45 35/35/35 33/33/33
f 16/16/16 15/15/15 14/14/14
f 40/40/40 16/16/16 14/14/14
f 15/15/15 16/16/16 28/28/28
f 16/16/16 29/29/29 28/28/28
f 22/22/22 21/21/21 20/20/20
f 41/41/41 22/22/22 20/20/20
f 41/41/41 20/20/20 24/24/24
f 20/20/20 25/25/25 24/24/24
f 32/32/32 31/31/31 30/30/30
f 44/44/44 32/32/32 30/30/30
