# VPXTOOL table OBJ file
# VPXTOOL OBJ file
# numVerts: 116 numFaces: 198
o p020
v 0.18615899980068207 -0.05110799893736839 -0.06048699840903282
v 0.15835599601268768 -0.05110799893736839 -0.11505299806594849
v 0.15856699645519257 -0.00203399988822639 -0.11520600318908691
v 0.18640699982643127 -0.00203399988822639 -0.06056800112128258
v 0 -0.05110799893736839 0.1957390010356903
v 0.06048699840903282 -0.05110799893736839 0.18615899980068207
v 0.06056800112128258 -0.00203399988822639 0.18640699982643127
v 0 -0.00203399988822639 0.19599999487400055
v -0.15835599601268768 -0.05110799893736839 -0.11505299806594849
v -0.18615899980068207 -0.05110799893736839 -0.06048699840903282
v -0.18640699982643127 -0.00203399988822639 -0.06056699901819229
v -0.15856699645519257 -0.00203399988822639 -0.11520600318908691
v 0.15856699645519257 -0.00203399988822639 -0.11520600318908691
v 0.15835599601268768 -0.05110799893736839 -0.11505299806594849
v 0.11505299806594849 -0.05110799893736839 -0.15835599601268768
v 0.11520600318908691 -0.00203399988822639 -0.15856699645519257
v -0.18615899980068207 -0.05110799893736839 -0.06048699840903282
v -0.1957390010356903 -0.05110799893736839 0
v -0.19599999487400055 -0.00203399988822639 0
v -0.18640699982643127 -0.00203399988822639 -0.06056699901819229
v 0.06048699840903282 -0.05110799893736839 0.18615899980068207
v 0.11505299806594849 -0.05110799893736839 0.15835599601268768
v 0.11520600318908691 -0.00203399988822639 0.15856699645519257
v 0.06056800112128258 -0.00203399988822639 0.18640699982643127
v 0.11505299806594849 -0.05110799893736839 -0.15835599601268768
v 0.06048699840903282 -0.05110799893736839 -0.18615899980068207
v 0.06056699901819229 -0.00203399988822639 -0.18640699982643127
v 0.11520600318908691 -0.00203399988822639 -0.15856699645519257
v -0.1957390010356903 -0.05110799893736839 0
v -0.18615899980068207 -0.05110799893736839 0.06048699840903282
v -0.18640699982643127 -0.00203399988822639 0.06056699901819229
v -0.19599999487400055 -0.00203399988822639 0
v 0.11505299806594849 -0.05110799893736839 0.15835599601268768
v 0.15835599601268768 -0.05110799893736839 0.1150519996881485
v 0.15856799483299255 -0.00203399988822639 0.11520600318908691
v 0.11520600318908691 -0.00203399988822639 0.15856699645519257
v 0.06048699840903282 -0.05110799893736839 -0.18615899980068207
v 0 -0.05110799893736839 -0.1957390010356903
v 0 -0.00203399988822639 -0.19599999487400055
v 0.06056699901819229 -0.00203399988822639 -0.18640699982643127
v -0.18615899980068207 -0.05110799893736839 0.06048699840903282
v -0.15835599601268768 -0.05110799893736839 0.11505299806594849
v -0.15856699645519257 -0.00203399988822639 0.11520600318908691
v -0.18640699982643127 -0.00203399988822639 0.06056699901819229
v 0.15835599601268768 -0.05110799893736839 0.1150519996881485
v 0.18615899980068207 -0.05110799893736839 0.060486000031232834
v 0.18640699982643127 -0.00203399988822639 0.06056699901819229
v 0.15856799483299255 -0.00203399988822639 0.11520600318908691
v 0 -0.05110799893736839 -0.1957390010356903
v -0.06048699840903282 -0.05110799893736839 -0.18615899980068207
v -0.06056699901819229 -0.00203399988822639 -0.18640699982643127
v 0 -0.00203399988822639 -0.19599999487400055
v -0.15835599601268768 -0.05110799893736839 0.11505299806594849
v -0.1150519996881485 -0.05110799893736839 0.15835599601268768
v -0.11520600318908691 -0.00203399988822639 0.15856699645519257
v -0.15856699645519257 -0.00203399988822639 0.11520600318908691
v 0.18615899980068207 -0.05110799893736839 0.060486000031232834
v 0.1957390010356903 -0.05110799893736839 -0
v 0.19599999487400055 -0.00203399988822639 -0
v 0.18640699982643127 -0.00203399988822639 0.06056699901819229
v -0.06048699840903282 -0.05110799893736839 -0.18615899980068207
v -0.11505299806594849 -0.05110799893736839 -0.15835599601268768
v -0.11520600318908691 -0.00203399988822639 -0.15856699645519257
v -0.06056699901819229 -0.00203399988822639 -0.18640699982643127
v -0.1150519996881485 -0.05110799893736839 0.15835599601268768
v -0.06048699840903282 -0.05110799893736839 0.18615899980068207
v -0.06056699901819229 -0.00203399988822639 0.18640699982643127
v -0.11520600318908691 -0.00203399988822639 0.15856699645519257
v 0.1957390010356903 -0.05110799893736839 -0
v 0.18615899980068207 -0.05110799893736839 -0.06048699840903282
v 0.18640699982643127 -0.00203399988822639 -0.06056800112128258
v 0.19599999487400055 -0.00203399988822639 -0
v -0.11505299806594849 -0.05110799893736839 -0.15835599601268768
v -0.15835599601268768 -0.05110799893736839 -0.11505299806594849
v -0.15856699645519257 -0.00203399988822639 -0.11520600318908691
v -0.11520600318908691 -0.00203399988822639 -0.15856699645519257
v -0.06048699840903282 -0.05110799893736839 0.18615899980068207
v 0 -0.05110799893736839 0.1957390010356903
v 0 -0.00203399988822639 0.19599999487400055
v -0.06056699901819229 -0.00203399988822639 0.18640699982643127
v -0.15835599601268768 -0.05110799893736839 -0.11505299806594849
v -0.11505299806594849 -0.05110799893736839 -0.15835599601268768
v -0.06048699840903282 -0.05110799893736839 -0.18615899980068207
v 0 -0.05110799893736839 -0.1957390010356903
v 0.06048699840903282 -0.05110799893736839 -0.18615899980068207
v 0.11505299806594849 -0.05110799893736839 -0.15835599601268768
v 0.15835599601268768 -0.05110799893736839 -0.11505299806594849
v 0.18615899980068207 -0.05110799893736839 -0.06048699840903282
v 0.1957390010356903 -0.05110799893736839 -0
v 0.18615899980068207 -0.05110799893736839 0.060486000031232834
v 0.15835599601268768 -0.05110799893736839 0.1150519996881485
v 0.11505299806594849 -0.05110799893736839 0.15835599601268768
v 0.06048699840903282 -0.05110799893736839 0.18615899980068207
v 0 -0.05110799893736839 0.1957390010356903
v -0.06048699840903282 -0.05110799893736839 0.18615899980068207
v -0.1150519996881485 -0.05110799893736839 0.15835599601268768
v -0.15835599601268768 -0.05110799893736839 0.11505299806594849
v -0.18615899980068207 -0.05110799893736839 0.06048699840903282
v -0.1957390010356903 -0.05110799893736839 0
v -0.18615899980068207 -0.05110799893736839 -0.06048699840903282
v -0.07490400224924088 -0.07290299981832504 0.0738229975104332
v -0.07490400224924088 -0.07290299981832504 0.00027799999224953353
v -0.07490400224924088 -0.08401600271463394 0.00027799999224953353
v -0.07490400224924088 -0.08401600271463394 0.0738229975104332
v -0.07490400224924088 -0.07290299981832504 0.00027799999224953353
v -0.0013599999947473407 -0.07290299981832504 0.00027799999224953353
v -0.0013599999947473407 -0.08401600271463394 0.00027799999224953353
v -0.07490400224924088 -0.08401600271463394 0.00027799999224953353
v -0.0013599999947473407 -0.07290299981832504 0.00027799999224953353
v -0.0013599999947473407 -0.07290299981832504 0.0738229975104332
v -0.0013599999947473407 -0.08401600271463394 0.0738229975104332
v -0.0013599999947473407 -0.08401600271463394 0.00027799999224953353
v -0.0013599999947473407 -0.07290299981832504 0.0738229975104332
v -0.07490400224924088 -0.07290299981832504 0.0738229975104332
v -0.07490400224924088 -0.08401600271463394 0.0738229975104332
v -0.0013599999947473407 -0.08401600271463394 0.0738229975104332
vt 0.9415010213851929 0.3565469980239868
vt 0.8755630254745483 0.22713702917099
vt 0.8983089923858643 0.2106109857559204
vt 0.9682400226593018 0.3478590250015259
vt 0.5000010132789612 0.9642220139503479
vt 0.6434530019760132 0.9415010213851929
vt 0.6521409749984741 0.9682400226593018
vt 0.5000010132789612 0.9923369884490967
vt 0.12443699687719345 0.2271379828453064
vt 0.05849900096654892 0.356548011302948
vt 0.031759001314640045 0.3478599786758423
vt 0.10169100016355515 0.2106109857559204
vt 0.8983089923858643 0.2106109857559204
vt 0.8755630254745483 0.22713702917099
vt 0.77286297082901 0.12443697452545166
vt 0.7893890142440796 0.10169100761413574
vt 0.05849900096654892 0.356548011302948
vt 0.03577800095081329 0.5
vt 0.007662999909371138 0.5
vt 0.031759001314640045 0.3478599786758423
vt 0.6434530019760132 0.9415010213851929
vt 0.77286297082901 0.8755630254745483
vt 0.7893890142440796 0.8983089923858643
vt 0.6521409749984741 0.9682400226593018
vt 0.77286297082901 0.12443697452545166
vt 0.643451988697052 0.05849897861480713
vt 0.6521409749984741 0.031759023666381836
vt 0.7893890142440796 0.10169100761413574
vt 0.03577800095081329 0.5
vt 0.05849900096654892 0.6434530019760132
vt 0.031759001314640045 0.6521409749984741
vt 0.007662999909371138 0.5
vt 0.77286297082901 0.8755630254745483
vt 0.8755639791488647 0.7728620171546936
vt 0.8983100056648254 0.7893880009651184
vt 0.7893890142440796 0.8983089923858643
vt 0.643451988697052 0.05849897861480713
vt 0.5 0.0357779860496521
vt 0.5 0.00766301155090332
vt 0.6521409749984741 0.031759023666381836
vt 0.05849900096654892 0.6434530019760132
vt 0.12443699687719345 0.7728630304336548
vt 0.10169100016355515 0.7893890142440796
vt 0.031759001314640045 0.6521409749984741
vt 0.8755639791488647 0.7728620171546936
vt 0.9415010213851929 0.643451988697052
vt 0.9682409763336182 0.6521400213241577
vt 0.8983100056648254 0.7893880009651184
vt 0.5 0.0357779860496521
vt 0.356548011302948 0.05849897861480713
vt 0.3478589951992035 0.031759023666381836
vt 0.5 0.00766301155090332
vt 0.12443699687719345 0.7728630304336548
vt 0.2271379977464676 0.8755630254745483
vt 0.2106119990348816 0.8983100056648254
vt 0.10169100016355515 0.7893890142440796
vt 0.9415010213851929 0.643451988697052
vt 0.9642220139503479 0.4999989867210388
vt 0.9923369884490967 0.4999989867210388
vt 0.9682409763336182 0.6521400213241577
vt 0.356548011302948 0.05849897861480713
vt 0.2271369993686676 0.12443697452545166
vt 0.2106110006570816 0.10169100761413574
vt 0.3478589951992035 0.031759023666381836
vt 0.2271379977464676 0.8755630254745483
vt 0.356548011302948 0.9415010213851929
vt 0.3478600084781647 0.9682409763336182
vt 0.2106119990348816 0.8983100056648254
vt 0.9642220139503479 0.4999989867210388
vt 0.9415010213851929 0.3565469980239868
vt 0.9682400226593018 0.3478590250015259
vt 0.9923369884490967 0.4999989867210388
vt 0.2271369993686676 0.12443697452545166
vt 0.12443699687719345 0.2271379828453064
vt 0.10169100016355515 0.2106109857559204
vt 0.2106110006570816 0.10169100761413574
vt 0.356548011302948 0.9415010213851929
vt 0.5000010132789612 0.9642220139503479
vt 0.5000010132789612 0.9923369884490967
vt 0.3478600084781647 0.9682409763336182
vt 0.12443699687719345 0.2271379828453064
vt 0.2271369993686676 0.12443697452545166
vt 0.356548011302948 0.05849897861480713
vt 0.5 0.0357779860496521
vt 0.643451988697052 0.05849897861480713
vt 0.77286297082901 0.12443697452545166
vt 0.8755630254745483 0.22713702917099
vt 0.9415010213851929 0.3565469980239868
vt 0.9642220139503479 0.4999989867210388
vt 0.9415010213851929 0.643451988697052
vt 0.8755639791488647 0.7728620171546936
vt 0.77286297082901 0.8755630254745483
vt 0.6434530019760132 0.9415010213851929
vt 0.5000010132789612 0.9642220139503479
vt 0.356548011302948 0.9415010213851929
vt 0.2271379977464676 0.8755630254745483
vt 0.12443699687719345 0.7728630304336548
vt 0.05849900096654892 0.6434530019760132
vt 0.03577800095081329 0.5
vt 0.05849900096654892 0.356548011302948
vt 0 1
vt 0 1
vt 0 1
vt 0 1
vt 0 1
vt 0 1
vt 0 1
vt 0 1
vt 0 1
vt 0 1
vt 0 1
vt 0 1
vt 0 1
vt 0 1
vt 0 1
vt 0 1
vn -0.890999972820282 0.0052999998442828655 0.45399999618530273
vn -0.890999972820282 0.0052999998442828655 0.45399999618530273
vn -0.890999972820282 0.0052999998442828655 0.45399999618530273
vn -0.890999972820282 0.0052999998442828655 0.45399999618530273
vn -0.15639999508857727 0.0052999998442828655 -0.9876999855041504
vn -0.15639999508857727 0.0052999998442828655 -0.9876999855041504
vn -0.15639999508857727 0.0052999998442828655 -0.9876999855041504
vn -0.15639999508857727 0.0052999998442828655 -0.9876999855041504
vn 0.890999972820282 0.0052999998442828655 0.45399999618530273
vn 0.890999972820282 0.0052999998442828655 0.45399999618530273
vn 0.890999972820282 0.0052999998442828655 0.45399999618530273
vn 0.890999972820282 0.0052999998442828655 0.45399999618530273
vn -0.707099974155426 0.005200000014156103 0.707099974155426
vn -0.707099974155426 0.005200000014156103 0.707099974155426
vn -0.707099974155426 0.005200000014156103 0.707099974155426
vn -0.707099974155426 0.005200000014156103 0.707099974155426
vn 0.9876999855041504 0.0052999998442828655 0.15639999508857727
vn 0.9876999855041504 0.0052999998442828655 0.15639999508857727
vn 0.9876999855041504 0.0052999998442828655 0.15639999508857727
vn 0.9876999855041504 0.0052999998442828655 0.15639999508857727
vn -0.45399999618530273 0.005200000014156103 -0.890999972820282
vn -0.45399999618530273 0.005200000014156103 -0.890999972820282
vn -0.45399999618530273 0.005200000014156103 -0.890999972820282
vn -0.45399999618530273 0.005200000014156103 -0.890999972820282
vn -0.45399999618530273 0.005200000014156103 0.890999972820282
vn -0.45399999618530273 0.005200000014156103 0.890999972820282
vn -0.45399999618530273 0.005200000014156103 0.890999972820282
vn -0.45399999618530273 0.005200000014156103 0.890999972820282
vn 0.9876999855041504 0.0052999998442828655 -0.15639999508857727
vn 0.9876999855041504 0.0052999998442828655 -0.15639999508857727
vn 0.9876999855041504 0.0052999998442828655 -0.15639999508857727
vn 0.9876999855041504 0.0052999998442828655 -0.15639999508857727
vn -0.707099974155426 0.005200000014156103 -0.707099974155426
vn -0.707099974155426 0.005200000014156103 -0.707099974155426
vn -0.707099974155426 0.005200000014156103 -0.707099974155426
vn -0.707099974155426 0.005200000014156103 -0.707099974155426
vn -0.15639999508857727 0.0052999998442828655 0.9876999855041504
vn -0.15639999508857727 0.0052999998442828655 0.9876999855041504
vn -0.15639999508857727 0.0052999998442828655 0.9876999855041504
vn -0.15639999508857727 0.0052999998442828655 0.9876999855041504
vn 0.890999972820282 0.0052999998442828655 -0.45399999618530273
vn 0.890999972820282 0.0052999998442828655 -0.45399999618530273
vn 0.890999972820282 0.0052999998442828655 -0.45399999618530273
vn 0.890999972820282 0.0052999998442828655 -0.45399999618530273
vn -0.890999972820282 0.0052999998442828655 -0.45399999618530273
vn -0.890999972820282 0.0052999998442828655 -0.45399999618530273
vn -0.890999972820282 0.0052999998442828655 -0.45399999618530273
vn -0.890999972820282 0.0052999998442828655 -0.45399999618530273
vn 0.15639999508857727 0.0052999998442828655 0.9876999855041504
vn 0.15639999508857727 0.0052999998442828655 0.9876999855041504
vn 0.15639999508857727 0.0052999998442828655 0.9876999855041504
vn 0.15639999508857727 0.0052999998442828655 0.9876999855041504
vn 0.707099974155426 0.005200000014156103 -0.707099974155426
vn 0.707099974155426 0.005200000014156103 -0.707099974155426
vn 0.707099974155426 0.005200000014156103 -0.707099974155426
vn 0.707099974155426 0.005200000014156103 -0.707099974155426
vn -0.9876999855041504 0.0052999998442828655 -0.15639999508857727
vn -0.9876999855041504 0.0052999998442828655 -0.15639999508857727
vn -0.9876999855041504 0.0052999998442828655 -0.15639999508857727
vn -0.9876999855041504 0.0052999998442828655 -0.15639999508857727
vn 0.45399999618530273 0.005200000014156103 0.890999972820282
vn 0.45399999618530273 0.005200000014156103 0.890999972820282
vn 0.45399999618530273 0.005200000014156103 0.890999972820282
vn 0.45399999618530273 0.005200000014156103 0.890999972820282
vn 0.45399999618530273 0.005200000014156103 -0.890999972820282
vn 0.45399999618530273 0.005200000014156103 -0.890999972820282
vn 0.45399999618530273 0.005200000014156103 -0.890999972820282
vn 0.45399999618530273 0.005200000014156103 -0.890999972820282
vn -0.9876999855041504 0.0052999998442828655 0.15639999508857727
vn -0.9876999855041504 0.0052999998442828655 0.15639999508857727
vn -0.9876999855041504 0.0052999998442828655 0.15639999508857727
vn -0.9876999855041504 0.0052999998442828655 0.15639999508857727
vn 0.707099974155426 0.005200000014156103 0.707099974155426
vn 0.707099974155426 0.005200000014156103 0.707099974155426
vn 0.707099974155426 0.005200000014156103 0.707099974155426
vn 0.707099974155426 0.005200000014156103 0.707099974155426
vn 0.15639999508857727 0.0052999998442828655 -0.9876999855041504
vn 0.15639999508857727 0.0052999998442828655 -0.9876999855041504
vn 0.15639999508857727 0.0052999998442828655 -0.9876999855041504
vn 0.15639999508857727 0.0052999998442828655 -0.9876999855041504
vn -0 1 0
vn -0 1 0
vn -0 1 0
vn -0 1 0
vn -0 1 0
vn -0 1 0
vn -0 1 0
vn -0 1 0
vn -0 1 0
vn -0 1 0
vn -0 1 0
vn -0 1 0
vn -0 1 0
vn -0 1 0
vn -0 1 0
vn -0 1 0
vn -0 1 0
vn -0 1 0
vn -0 1 0
vn -0 1 0
vn 1 -0 -0
vn 1 -0 -0
vn 1 -0 -0
vn 1 -0 -0
vn 0 -0 1
vn 0 -0 1
vn 0 -0 1
vn 0 -0 1
vn -1 -0 0
vn -1 -0 0
vn -1 -0 0
vn -1 -0 0
vn 0 0 -1
vn 0 0 -1
vn 0 0 -1
vn 0 0 -1
f 3/3/3 2/2/2 1/1/1
f 4/4/4 3/3/3 1/1/1
f 7/7/7 6/6/6 5/5/5
f 8/8/8 7/7/7 5/5/5
f 11/11/11 10/10/10 9/9/9
f 12/12/12 11/11/11 9/9/9
f 15/15/15 14/14/14 13/13/13
f 16/16/16 15/15/15 13/13/13
f 19/19/19 18/18/18 17/17/17
f 20/20/20 19/19/19 17/17/17
f 23/23/23 22/22/22 21/21/21
f 24/24/24 23/23/23 21/21/21
f 27/27/27 26/26/26 25/25/25
f 28/28/28 27/27/27 25/25/25
f 31/31/31 30/30/30 29/29/29
f 32/32/32 31/31/31 29/29/29
f 35/35/35 34/34/34 33/33/33
f 36/36/36 35/35/35 33/33/33
f 39/39/39 38/38/38 37/37/37
f 40/40/40 39/39/39 37/37/37
f 43/43/43 42/42/42 41/41/41
f 44/44/44 43/43/43 41/41/41
f 47/47/47 46/46/46 45/45/45
f 48/48/48 47/47/47 45/45/45
f 51/51/51 50/50/50 49/49/49
f 52/52/52 51/51/51 49/49/49
f 55/55/55 54/54/54 53/53/53
f 56/56/56 55/55/55 53/53/53
f 59/59/59 58/58/58 57/57/57
f 60/60/60 59/59/59 57/57/57
f 63/63/63 62/62/62 61/61/61
f 64/64/64 63/63/63 61/61/61
f 67/67/67 66/66/66 65/65/65
f 68/68/68 67/67/67 65/65/65
f 71/71/71 70/70/70 69/69/69
f 72/72/72 71/71/71 69/69/69
f 75/75/75 74/74/74 73/73/73
f 76/76/76 75/75/75 73/73/73
f 79/79/79 78/78/78 77/77/77
f 80/80/80 79/79/79 77/77/77
f 83/83/83 82/82/82 81/81/81
f 84/84/84 83/83/83 81/81/81
f 85/85/85 84/84/84 81/81/81
f 86/86/86 85/85/85 81/81/81
f 87/87/87 86/86/86 81/81/81
f 88/88/88 87/87/87 81/81/81
f 89/89/89 88/88/88 81/81/81
f 90/90/90 89/89/89 81/81/81
f 91/91/91 90/90/90 81/81/81
f 92/92/92 91/91/91 81/81/81
f 93/93/93 92/92/92 81/81/81
f 94/94/94 93/93/93 81/81/81
f 95/95/95 94/94/94 81/81/81
f 96/96/96 95/95/95 81/81/81
f 97/97/97 96/96/96 81/81/81
f 98/98/98 97/97/97 81/81/81
f 99/99/99 98/98/98 81/81/81
f 100/100/100 99/99/99 81/81/81
f 103/103/103 102/102/102 101/101/101
f 104/104/104 103/103/103 101/101/101
f 107/107/107 106/106/106 105/105/105
f 108/108/108 107/107/107 105/105/105
f 111/111/111 110/110/110 109/109/109
f 112/112/112 111/111/111 109/109/109
f 115/115/115 114/114/114 113/113/113
f 116/116/116 115/115/115 113/113/113
